<mxfile host="Electron" agent="Mozilla/5.0 (Windows NT 10.0; Win64; x64) AppleWebKit/537.36 (KHTML, like Gecko) draw.io/27.0.9 Chrome/134.0.6998.205 Electron/35.4.0 Safari/537.36" version="27.0.9">
  <diagram name="페이지-1" id="QVAEFclXdE4kE_DvcFpS">
    <mxGraphModel dx="4132" dy="2402" grid="0" gridSize="10" guides="1" tooltips="1" connect="1" arrows="1" fold="1" page="1" pageScale="1" pageWidth="827" pageHeight="1169" math="0" shadow="0">
      <root>
        <mxCell id="0" />
        <mxCell id="1" parent="0" />
        <mxCell id="zkeMFTvEMQsarWQc4OUX-1" value="" style="rounded=0;whiteSpace=wrap;html=1;" parent="1" vertex="1">
          <mxGeometry x="740" y="460" width="1820" height="1395.5" as="geometry" />
        </mxCell>
        <mxCell id="zkeMFTvEMQsarWQc4OUX-2" value="ROM&lt;div&gt;(Instruction Mem)&lt;/div&gt;" style="rounded=0;whiteSpace=wrap;html=1;fontStyle=1;fontSize=31;" parent="1" vertex="1">
          <mxGeometry x="300" y="730" width="240" height="700" as="geometry" />
        </mxCell>
        <mxCell id="zkeMFTvEMQsarWQc4OUX-3" value="" style="rounded=0;whiteSpace=wrap;html=1;" parent="1" vertex="1">
          <mxGeometry x="970" y="730" width="280" height="380" as="geometry" />
        </mxCell>
        <mxCell id="zkeMFTvEMQsarWQc4OUX-4" value="" style="shape=table;startSize=0;container=1;collapsible=0;childLayout=tableLayout;" parent="1" vertex="1">
          <mxGeometry x="1040" y="830" width="140" height="250" as="geometry" />
        </mxCell>
        <mxCell id="zkeMFTvEMQsarWQc4OUX-5" value="" style="shape=tableRow;horizontal=0;startSize=0;swimlaneHead=0;swimlaneBody=0;strokeColor=inherit;top=0;left=0;bottom=0;right=0;collapsible=0;dropTarget=0;fillColor=none;points=[[0,0.5],[1,0.5]];portConstraint=eastwest;" parent="zkeMFTvEMQsarWQc4OUX-4" vertex="1">
          <mxGeometry width="140" height="50" as="geometry" />
        </mxCell>
        <mxCell id="zkeMFTvEMQsarWQc4OUX-6" value="R31" style="shape=partialRectangle;html=1;whiteSpace=wrap;connectable=0;strokeColor=inherit;overflow=hidden;fillColor=none;top=0;left=0;bottom=0;right=0;pointerEvents=1;" parent="zkeMFTvEMQsarWQc4OUX-5" vertex="1">
          <mxGeometry width="140" height="50" as="geometry">
            <mxRectangle width="140" height="50" as="alternateBounds" />
          </mxGeometry>
        </mxCell>
        <mxCell id="zkeMFTvEMQsarWQc4OUX-7" value="" style="shape=tableRow;horizontal=0;startSize=0;swimlaneHead=0;swimlaneBody=0;strokeColor=inherit;top=0;left=0;bottom=0;right=0;collapsible=0;dropTarget=0;fillColor=none;points=[[0,0.5],[1,0.5]];portConstraint=eastwest;" parent="zkeMFTvEMQsarWQc4OUX-4" vertex="1">
          <mxGeometry y="50" width="140" height="50" as="geometry" />
        </mxCell>
        <mxCell id="zkeMFTvEMQsarWQc4OUX-8" value="R30" style="shape=partialRectangle;html=1;whiteSpace=wrap;connectable=0;strokeColor=inherit;overflow=hidden;fillColor=none;top=0;left=0;bottom=0;right=0;pointerEvents=1;" parent="zkeMFTvEMQsarWQc4OUX-7" vertex="1">
          <mxGeometry width="140" height="50" as="geometry">
            <mxRectangle width="140" height="50" as="alternateBounds" />
          </mxGeometry>
        </mxCell>
        <mxCell id="zkeMFTvEMQsarWQc4OUX-9" value="" style="shape=tableRow;horizontal=0;startSize=0;swimlaneHead=0;swimlaneBody=0;strokeColor=inherit;top=0;left=0;bottom=0;right=0;collapsible=0;dropTarget=0;fillColor=none;points=[[0,0.5],[1,0.5]];portConstraint=eastwest;" parent="zkeMFTvEMQsarWQc4OUX-4" vertex="1">
          <mxGeometry y="100" width="140" height="50" as="geometry" />
        </mxCell>
        <mxCell id="zkeMFTvEMQsarWQc4OUX-10" value="..." style="shape=partialRectangle;html=1;whiteSpace=wrap;connectable=0;strokeColor=inherit;overflow=hidden;fillColor=none;top=0;left=0;bottom=0;right=0;pointerEvents=1;" parent="zkeMFTvEMQsarWQc4OUX-9" vertex="1">
          <mxGeometry width="140" height="50" as="geometry">
            <mxRectangle width="140" height="50" as="alternateBounds" />
          </mxGeometry>
        </mxCell>
        <mxCell id="zkeMFTvEMQsarWQc4OUX-11" value="" style="shape=tableRow;horizontal=0;startSize=0;swimlaneHead=0;swimlaneBody=0;strokeColor=inherit;top=0;left=0;bottom=0;right=0;collapsible=0;dropTarget=0;fillColor=none;points=[[0,0.5],[1,0.5]];portConstraint=eastwest;" parent="zkeMFTvEMQsarWQc4OUX-4" vertex="1">
          <mxGeometry y="150" width="140" height="50" as="geometry" />
        </mxCell>
        <mxCell id="zkeMFTvEMQsarWQc4OUX-12" value="R1" style="shape=partialRectangle;html=1;whiteSpace=wrap;connectable=0;strokeColor=inherit;overflow=hidden;fillColor=none;top=0;left=0;bottom=0;right=0;pointerEvents=1;" parent="zkeMFTvEMQsarWQc4OUX-11" vertex="1">
          <mxGeometry width="140" height="50" as="geometry">
            <mxRectangle width="140" height="50" as="alternateBounds" />
          </mxGeometry>
        </mxCell>
        <mxCell id="zkeMFTvEMQsarWQc4OUX-13" value="" style="shape=tableRow;horizontal=0;startSize=0;swimlaneHead=0;swimlaneBody=0;strokeColor=inherit;top=0;left=0;bottom=0;right=0;collapsible=0;dropTarget=0;fillColor=none;points=[[0,0.5],[1,0.5]];portConstraint=eastwest;" parent="zkeMFTvEMQsarWQc4OUX-4" vertex="1">
          <mxGeometry y="200" width="140" height="50" as="geometry" />
        </mxCell>
        <mxCell id="zkeMFTvEMQsarWQc4OUX-14" value="R0(==0 Fix)" style="shape=partialRectangle;html=1;whiteSpace=wrap;connectable=0;strokeColor=inherit;overflow=hidden;fillColor=none;top=0;left=0;bottom=0;right=0;pointerEvents=1;" parent="zkeMFTvEMQsarWQc4OUX-13" vertex="1">
          <mxGeometry width="140" height="50" as="geometry">
            <mxRectangle width="140" height="50" as="alternateBounds" />
          </mxGeometry>
        </mxCell>
        <mxCell id="zkeMFTvEMQsarWQc4OUX-15" style="edgeStyle=orthogonalEdgeStyle;rounded=0;orthogonalLoop=1;jettySize=auto;html=1;exitDx=0;exitDy=0;entryX=1;entryY=0.5;entryDx=0;entryDy=0;" parent="1" source="zkeMFTvEMQsarWQc4OUX-142" target="zkeMFTvEMQsarWQc4OUX-88" edge="1">
          <mxGeometry relative="1" as="geometry">
            <Array as="points">
              <mxPoint x="1695" y="920" />
              <mxPoint x="1695" y="1111" />
            </Array>
          </mxGeometry>
        </mxCell>
        <mxCell id="zkeMFTvEMQsarWQc4OUX-16" value="ALU" style="shape=step;perimeter=stepPerimeter;whiteSpace=wrap;html=1;fixedSize=1;fontStyle=1;fontSize=15;" parent="1" vertex="1">
          <mxGeometry x="1460" y="820" width="120" height="200" as="geometry" />
        </mxCell>
        <mxCell id="zkeMFTvEMQsarWQc4OUX-17" value="" style="endArrow=classic;html=1;rounded=0;entryX=0.083;entryY=0.245;entryDx=0;entryDy=0;entryPerimeter=0;" parent="1" source="zkeMFTvEMQsarWQc4OUX-120" target="zkeMFTvEMQsarWQc4OUX-16" edge="1">
          <mxGeometry width="50" height="50" relative="1" as="geometry">
            <mxPoint x="1250" y="870" as="sourcePoint" />
            <mxPoint x="1300" y="820" as="targetPoint" />
          </mxGeometry>
        </mxCell>
        <mxCell id="zkeMFTvEMQsarWQc4OUX-18" value="RD1" style="text;html=1;align=center;verticalAlign=middle;whiteSpace=wrap;rounded=0;" parent="1" vertex="1">
          <mxGeometry x="1190" y="860" width="60" height="30" as="geometry" />
        </mxCell>
        <mxCell id="zkeMFTvEMQsarWQc4OUX-19" value="RD2" style="text;html=1;align=center;verticalAlign=middle;whiteSpace=wrap;rounded=0;" parent="1" vertex="1">
          <mxGeometry x="1190" y="980" width="60" height="30" as="geometry" />
        </mxCell>
        <mxCell id="zkeMFTvEMQsarWQc4OUX-20" value="Register File" style="text;html=1;align=center;verticalAlign=middle;whiteSpace=wrap;rounded=0;fontStyle=1;fontSize=15;" parent="1" vertex="1">
          <mxGeometry x="1055" y="740" width="110" height="30" as="geometry" />
        </mxCell>
        <mxCell id="zkeMFTvEMQsarWQc4OUX-21" value="Control Unit" style="rounded=0;whiteSpace=wrap;html=1;fontStyle=1;fontSize=31;" parent="1" vertex="1">
          <mxGeometry x="770" y="490" width="1720" height="170" as="geometry" />
        </mxCell>
        <mxCell id="zkeMFTvEMQsarWQc4OUX-22" value="WD" style="text;html=1;align=center;verticalAlign=middle;whiteSpace=wrap;rounded=0;" parent="1" vertex="1">
          <mxGeometry x="970" y="1040" width="60" height="30" as="geometry" />
        </mxCell>
        <mxCell id="zkeMFTvEMQsarWQc4OUX-23" value="RF_&lt;span style=&quot;color: rgba(0, 0, 0, 0); font-family: monospace; font-size: 0px; text-align: start; text-wrap-mode: nowrap;&quot;&gt;%3CmxGraphModel%3E%3Croot%3E%3CmxCell%20id%3D%220%22%2F%3E%3CmxCell%20id%3D%221%22%20parent%3D%220%22%2F%3E%3CmxCell%20id%3D%222%22%20value%3D%22WD%22%20style%3D%22text%3Bhtml%3D1%3Balign%3Dcenter%3BverticalAlign%3Dmiddle%3BwhiteSpace%3Dwrap%3Brounded%3D0%3B%22%20vertex%3D%221%22%20parent%3D%221%22%3E%3CmxGeometry%20x%3D%2240%22%20y%3D%22610%22%20width%3D%2260%22%20height%3D%2230%22%20as%3D%22geometry%22%2F%3E%3C%2FmxCell%3E%3C%2Froot%3E%3C%2FmxGraphModel%3E&lt;/span&gt;WE" style="text;html=1;align=center;verticalAlign=middle;whiteSpace=wrap;rounded=0;" parent="1" vertex="1">
          <mxGeometry x="970" y="750" width="60" height="30" as="geometry" />
        </mxCell>
        <mxCell id="zkeMFTvEMQsarWQc4OUX-24" style="edgeStyle=orthogonalEdgeStyle;rounded=0;orthogonalLoop=1;jettySize=auto;html=1;entryX=0;entryY=0.5;entryDx=0;entryDy=0;" parent="1" source="zkeMFTvEMQsarWQc4OUX-25" target="zkeMFTvEMQsarWQc4OUX-23" edge="1">
          <mxGeometry relative="1" as="geometry" />
        </mxCell>
        <mxCell id="zkeMFTvEMQsarWQc4OUX-25" value="RF_&lt;span style=&quot;color: rgba(0, 0, 0, 0); font-family: monospace; font-size: 0px; text-align: start; text-wrap-mode: nowrap;&quot;&gt;%3CmxGraphModel%3E%3Croot%3E%3CmxCell%20id%3D%220%22%2F%3E%3CmxCell%20id%3D%221%22%20parent%3D%220%22%2F%3E%3CmxCell%20id%3D%222%22%20value%3D%22WD%22%20style%3D%22text%3Bhtml%3D1%3Balign%3Dcenter%3BverticalAlign%3Dmiddle%3BwhiteSpace%3Dwrap%3Brounded%3D0%3B%22%20vertex%3D%221%22%20parent%3D%221%22%3E%3CmxGeometry%20x%3D%2240%22%20y%3D%22610%22%20width%3D%2260%22%20height%3D%2230%22%20as%3D%22geometry%22%2F%3E%3C%2FmxCell%3E%3C%2Froot%3E%3C%2FmxGraphModel%3E&lt;/span&gt;WE" style="text;html=1;align=center;verticalAlign=middle;whiteSpace=wrap;rounded=0;" parent="1" vertex="1">
          <mxGeometry x="960" y="630" width="60" height="30" as="geometry" />
        </mxCell>
        <mxCell id="zkeMFTvEMQsarWQc4OUX-26" value="PC" style="rounded=0;whiteSpace=wrap;html=1;fontStyle=1;fontSize=15;" parent="1" vertex="1">
          <mxGeometry x="930" y="1340" width="120" height="60" as="geometry" />
        </mxCell>
        <mxCell id="zkeMFTvEMQsarWQc4OUX-27" value="&lt;font style=&quot;font-size: 26px;&quot;&gt;+&lt;/font&gt;" style="shape=step;perimeter=stepPerimeter;whiteSpace=wrap;html=1;fixedSize=1;rotation=-180;" parent="1" vertex="1">
          <mxGeometry x="1320" y="1450" width="60" height="70" as="geometry" />
        </mxCell>
        <mxCell id="zkeMFTvEMQsarWQc4OUX-28" value="32&#39;d4" style="rounded=1;whiteSpace=wrap;html=1;" parent="1" vertex="1">
          <mxGeometry x="1441.9799999999996" y="1474" width="70" height="60" as="geometry" />
        </mxCell>
        <mxCell id="zkeMFTvEMQsarWQc4OUX-29" value="addr" style="text;html=1;align=center;verticalAlign=middle;whiteSpace=wrap;rounded=0;" parent="1" vertex="1">
          <mxGeometry x="480" y="1350" width="60" height="30" as="geometry" />
        </mxCell>
        <mxCell id="zkeMFTvEMQsarWQc4OUX-30" style="edgeStyle=orthogonalEdgeStyle;rounded=0;orthogonalLoop=1;jettySize=auto;html=1;exitX=0;exitY=0.5;exitDx=0;exitDy=0;entryX=1;entryY=0.914;entryDx=0;entryDy=0;entryPerimeter=0;" parent="1" source="zkeMFTvEMQsarWQc4OUX-26" target="zkeMFTvEMQsarWQc4OUX-2" edge="1">
          <mxGeometry relative="1" as="geometry" />
        </mxCell>
        <mxCell id="zkeMFTvEMQsarWQc4OUX-31" value="CPU" style="text;html=1;align=center;verticalAlign=middle;whiteSpace=wrap;rounded=0;fontStyle=1;fontSize=31;" parent="1" vertex="1">
          <mxGeometry x="1291.5" y="410" width="225" height="30" as="geometry" />
        </mxCell>
        <mxCell id="zkeMFTvEMQsarWQc4OUX-32" value="instr_Code" style="text;html=1;align=center;verticalAlign=middle;whiteSpace=wrap;rounded=0;" parent="1" vertex="1">
          <mxGeometry x="477" y="905" width="60" height="30" as="geometry" />
        </mxCell>
        <mxCell id="zkeMFTvEMQsarWQc4OUX-33" style="edgeStyle=orthogonalEdgeStyle;rounded=0;orthogonalLoop=1;jettySize=auto;html=1;" parent="1" source="zkeMFTvEMQsarWQc4OUX-37" edge="1">
          <mxGeometry relative="1" as="geometry">
            <mxPoint x="740" y="920" as="targetPoint" />
            <Array as="points">
              <mxPoint x="741" y="920" />
            </Array>
          </mxGeometry>
        </mxCell>
        <mxCell id="zkeMFTvEMQsarWQc4OUX-34" value="" style="endArrow=classic;html=1;rounded=0;entryX=0;entryY=0.5;entryDx=0;entryDy=0;" parent="1" source="zkeMFTvEMQsarWQc4OUX-42" target="zkeMFTvEMQsarWQc4OUX-3" edge="1">
          <mxGeometry width="50" height="50" relative="1" as="geometry">
            <mxPoint x="740" y="920" as="sourcePoint" />
            <mxPoint x="790" y="870" as="targetPoint" />
          </mxGeometry>
        </mxCell>
        <mxCell id="zkeMFTvEMQsarWQc4OUX-35" value="" style="edgeStyle=orthogonalEdgeStyle;rounded=0;orthogonalLoop=1;jettySize=auto;html=1;entryDx=0;entryDy=0;entryPerimeter=0;" parent="1" source="zkeMFTvEMQsarWQc4OUX-32" target="zkeMFTvEMQsarWQc4OUX-37" edge="1">
          <mxGeometry relative="1" as="geometry">
            <mxPoint x="537" y="920" as="sourcePoint" />
            <mxPoint x="741" y="921" as="targetPoint" />
          </mxGeometry>
        </mxCell>
        <mxCell id="zkeMFTvEMQsarWQc4OUX-36" style="edgeStyle=orthogonalEdgeStyle;rounded=0;orthogonalLoop=1;jettySize=auto;html=1;entryX=0;entryY=0.5;entryDx=0;entryDy=0;" parent="1" source="zkeMFTvEMQsarWQc4OUX-37" target="zkeMFTvEMQsarWQc4OUX-21" edge="1">
          <mxGeometry relative="1" as="geometry">
            <Array as="points">
              <mxPoint x="640" y="575" />
            </Array>
          </mxGeometry>
        </mxCell>
        <mxCell id="zkeMFTvEMQsarWQc4OUX-37" value="" style="shape=waypoint;sketch=0;fillStyle=solid;size=6;pointerEvents=1;points=[];fillColor=none;resizable=0;rotatable=0;perimeter=centerPerimeter;snapToPoint=1;" parent="1" vertex="1">
          <mxGeometry x="630" y="910" width="20" height="20" as="geometry" />
        </mxCell>
        <mxCell id="zkeMFTvEMQsarWQc4OUX-38" value="R_ADDR1" style="text;html=1;align=center;verticalAlign=middle;whiteSpace=wrap;rounded=0;" parent="1" vertex="1">
          <mxGeometry x="970" y="905" width="60" height="30" as="geometry" />
        </mxCell>
        <mxCell id="zkeMFTvEMQsarWQc4OUX-39" value="R_ADDR2" style="text;html=1;align=center;verticalAlign=middle;whiteSpace=wrap;rounded=0;" parent="1" vertex="1">
          <mxGeometry x="970" y="950" width="60" height="30" as="geometry" />
        </mxCell>
        <mxCell id="zkeMFTvEMQsarWQc4OUX-40" value="" style="endArrow=classic;html=1;rounded=0;entryDx=0;entryDy=0;" parent="1" target="zkeMFTvEMQsarWQc4OUX-42" edge="1">
          <mxGeometry width="50" height="50" relative="1" as="geometry">
            <mxPoint x="740" y="920" as="sourcePoint" />
            <mxPoint x="970" y="920" as="targetPoint" />
          </mxGeometry>
        </mxCell>
        <mxCell id="zkeMFTvEMQsarWQc4OUX-41" style="edgeStyle=orthogonalEdgeStyle;rounded=0;orthogonalLoop=1;jettySize=auto;html=1;entryX=0;entryY=0.5;entryDx=0;entryDy=0;" parent="1" source="zkeMFTvEMQsarWQc4OUX-46" target="zkeMFTvEMQsarWQc4OUX-39" edge="1">
          <mxGeometry relative="1" as="geometry">
            <Array as="points">
              <mxPoint x="860" y="965" />
            </Array>
          </mxGeometry>
        </mxCell>
        <mxCell id="zkeMFTvEMQsarWQc4OUX-42" value="" style="shape=waypoint;sketch=0;fillStyle=solid;size=6;pointerEvents=1;points=[];fillColor=none;resizable=0;rotatable=0;perimeter=centerPerimeter;snapToPoint=1;" parent="1" vertex="1">
          <mxGeometry x="850" y="910" width="20" height="20" as="geometry" />
        </mxCell>
        <mxCell id="zkeMFTvEMQsarWQc4OUX-43" value="W_ADDR" style="text;html=1;align=center;verticalAlign=middle;whiteSpace=wrap;rounded=0;" parent="1" vertex="1">
          <mxGeometry x="970" y="999.5" width="60" height="30" as="geometry" />
        </mxCell>
        <mxCell id="zkeMFTvEMQsarWQc4OUX-44" value="" style="edgeStyle=orthogonalEdgeStyle;rounded=0;orthogonalLoop=1;jettySize=auto;html=1;entryDx=0;entryDy=0;" parent="1" source="zkeMFTvEMQsarWQc4OUX-42" target="zkeMFTvEMQsarWQc4OUX-46" edge="1">
          <mxGeometry relative="1" as="geometry">
            <mxPoint x="860" y="920" as="sourcePoint" />
            <mxPoint x="970" y="965" as="targetPoint" />
            <Array as="points" />
          </mxGeometry>
        </mxCell>
        <mxCell id="zkeMFTvEMQsarWQc4OUX-45" style="edgeStyle=orthogonalEdgeStyle;rounded=0;orthogonalLoop=1;jettySize=auto;html=1;entryX=0;entryY=0.5;entryDx=0;entryDy=0;" parent="1" source="zkeMFTvEMQsarWQc4OUX-50" target="zkeMFTvEMQsarWQc4OUX-43" edge="1">
          <mxGeometry relative="1" as="geometry">
            <Array as="points">
              <mxPoint x="860" y="1014" />
            </Array>
          </mxGeometry>
        </mxCell>
        <mxCell id="zkeMFTvEMQsarWQc4OUX-46" value="" style="shape=waypoint;sketch=0;fillStyle=solid;size=6;pointerEvents=1;points=[];fillColor=none;resizable=0;rotatable=0;perimeter=centerPerimeter;snapToPoint=1;" parent="1" vertex="1">
          <mxGeometry x="850" y="950" width="20" height="20" as="geometry" />
        </mxCell>
        <mxCell id="zkeMFTvEMQsarWQc4OUX-47" value="Imm_Extend" style="rounded=0;whiteSpace=wrap;html=1;" parent="1" vertex="1">
          <mxGeometry x="990" y="1150" width="230" height="81" as="geometry" />
        </mxCell>
        <mxCell id="zkeMFTvEMQsarWQc4OUX-48" value="" style="edgeStyle=orthogonalEdgeStyle;rounded=0;orthogonalLoop=1;jettySize=auto;html=1;entryDx=0;entryDy=0;" parent="1" source="zkeMFTvEMQsarWQc4OUX-46" target="zkeMFTvEMQsarWQc4OUX-50" edge="1">
          <mxGeometry relative="1" as="geometry">
            <Array as="points" />
            <mxPoint x="860" y="960" as="sourcePoint" />
            <mxPoint x="970" y="1015" as="targetPoint" />
          </mxGeometry>
        </mxCell>
        <mxCell id="zkeMFTvEMQsarWQc4OUX-49" style="edgeStyle=orthogonalEdgeStyle;rounded=0;orthogonalLoop=1;jettySize=auto;html=1;entryX=0;entryY=0.5;entryDx=0;entryDy=0;" parent="1" source="zkeMFTvEMQsarWQc4OUX-50" target="zkeMFTvEMQsarWQc4OUX-47" edge="1">
          <mxGeometry relative="1" as="geometry">
            <Array as="points">
              <mxPoint x="860" y="1191" />
            </Array>
          </mxGeometry>
        </mxCell>
        <mxCell id="zkeMFTvEMQsarWQc4OUX-50" value="" style="shape=waypoint;sketch=0;fillStyle=solid;size=6;pointerEvents=1;points=[];fillColor=none;resizable=0;rotatable=0;perimeter=centerPerimeter;snapToPoint=1;" parent="1" vertex="1">
          <mxGeometry x="850" y="1000" width="20" height="20" as="geometry" />
        </mxCell>
        <mxCell id="zkeMFTvEMQsarWQc4OUX-51" style="edgeStyle=orthogonalEdgeStyle;rounded=0;orthogonalLoop=1;jettySize=auto;html=1;exitX=0.5;exitY=0;exitDx=0;exitDy=0;entryX=0;entryY=0.75;entryDx=0;entryDy=0;" parent="1" source="zkeMFTvEMQsarWQc4OUX-52" target="zkeMFTvEMQsarWQc4OUX-16" edge="1">
          <mxGeometry relative="1" as="geometry" />
        </mxCell>
        <mxCell id="zkeMFTvEMQsarWQc4OUX-52" value="" style="shape=trapezoid;perimeter=trapezoidPerimeter;whiteSpace=wrap;html=1;fixedSize=1;rotation=90;" parent="1" vertex="1">
          <mxGeometry x="1287.5" y="1000" width="170" height="60" as="geometry" />
        </mxCell>
        <mxCell id="zkeMFTvEMQsarWQc4OUX-53" style="edgeStyle=orthogonalEdgeStyle;rounded=0;orthogonalLoop=1;jettySize=auto;html=1;exitDx=0;exitDy=0;entryX=0.299;entryY=1.009;entryDx=0;entryDy=0;entryPerimeter=0;" parent="1" source="zkeMFTvEMQsarWQc4OUX-147" target="zkeMFTvEMQsarWQc4OUX-52" edge="1">
          <mxGeometry relative="1" as="geometry" />
        </mxCell>
        <mxCell id="zkeMFTvEMQsarWQc4OUX-54" style="edgeStyle=orthogonalEdgeStyle;rounded=0;orthogonalLoop=1;jettySize=auto;html=1;exitDx=0;exitDy=0;entryX=0.638;entryY=0.99;entryDx=0;entryDy=0;entryPerimeter=0;" parent="1" source="zkeMFTvEMQsarWQc4OUX-63" target="zkeMFTvEMQsarWQc4OUX-52" edge="1">
          <mxGeometry relative="1" as="geometry" />
        </mxCell>
        <mxCell id="zkeMFTvEMQsarWQc4OUX-55" value="ALUSrcMux" style="text;html=1;align=center;verticalAlign=middle;whiteSpace=wrap;rounded=0;" parent="1" vertex="1">
          <mxGeometry x="1340" y="1015" width="60" height="30" as="geometry" />
        </mxCell>
        <mxCell id="zkeMFTvEMQsarWQc4OUX-56" style="edgeStyle=orthogonalEdgeStyle;rounded=0;orthogonalLoop=1;jettySize=auto;html=1;entryX=0;entryY=0.5;entryDx=0;entryDy=0;" parent="1" source="zkeMFTvEMQsarWQc4OUX-57" target="zkeMFTvEMQsarWQc4OUX-52" edge="1">
          <mxGeometry relative="1" as="geometry" />
        </mxCell>
        <mxCell id="zkeMFTvEMQsarWQc4OUX-57" value="ALUSrcMuxSel" style="text;html=1;align=center;verticalAlign=middle;whiteSpace=wrap;rounded=0;" parent="1" vertex="1">
          <mxGeometry x="1315" y="630" width="110" height="30" as="geometry" />
        </mxCell>
        <mxCell id="zkeMFTvEMQsarWQc4OUX-58" value="instr_Code" style="text;html=1;align=center;verticalAlign=middle;whiteSpace=wrap;rounded=0;" parent="1" vertex="1">
          <mxGeometry x="992" y="1179" width="60" height="30" as="geometry" />
        </mxCell>
        <mxCell id="zkeMFTvEMQsarWQc4OUX-59" style="edgeStyle=orthogonalEdgeStyle;rounded=0;orthogonalLoop=1;jettySize=auto;html=1;exitX=0.5;exitY=1;exitDx=0;exitDy=0;entryX=0.5;entryY=0;entryDx=0;entryDy=0;" parent="1" source="zkeMFTvEMQsarWQc4OUX-60" target="zkeMFTvEMQsarWQc4OUX-74" edge="1">
          <mxGeometry relative="1" as="geometry" />
        </mxCell>
        <mxCell id="zkeMFTvEMQsarWQc4OUX-60" value="Comparator" style="rounded=0;whiteSpace=wrap;html=1;" parent="1" vertex="1">
          <mxGeometry x="1470" y="965" width="90" height="50" as="geometry" />
        </mxCell>
        <mxCell id="zkeMFTvEMQsarWQc4OUX-61" style="edgeStyle=orthogonalEdgeStyle;rounded=0;orthogonalLoop=1;jettySize=auto;html=1;entryX=0.15;entryY=1.013;entryDx=0;entryDy=0;entryPerimeter=0;" parent="1" source="zkeMFTvEMQsarWQc4OUX-28" edge="1">
          <mxGeometry relative="1" as="geometry">
            <mxPoint x="1370" y="1504" as="targetPoint" />
          </mxGeometry>
        </mxCell>
        <mxCell id="zkeMFTvEMQsarWQc4OUX-62" value="" style="edgeStyle=orthogonalEdgeStyle;rounded=0;orthogonalLoop=1;jettySize=auto;html=1;exitX=1;exitY=0.5;exitDx=0;exitDy=0;entryDx=0;entryDy=0;entryPerimeter=0;" parent="1" source="zkeMFTvEMQsarWQc4OUX-47" target="zkeMFTvEMQsarWQc4OUX-63" edge="1">
          <mxGeometry relative="1" as="geometry">
            <mxPoint x="1220" y="1191" as="sourcePoint" />
            <mxPoint x="1343" y="1053" as="targetPoint" />
          </mxGeometry>
        </mxCell>
        <mxCell id="zkeMFTvEMQsarWQc4OUX-63" value="" style="shape=waypoint;sketch=0;fillStyle=solid;size=6;pointerEvents=1;points=[];fillColor=none;resizable=0;rotatable=0;perimeter=centerPerimeter;snapToPoint=1;" parent="1" vertex="1">
          <mxGeometry x="1280" y="1179" width="20" height="20" as="geometry" />
        </mxCell>
        <mxCell id="zkeMFTvEMQsarWQc4OUX-64" value="&lt;font style=&quot;font-size: 26px;&quot;&gt;+&lt;/font&gt;" style="shape=step;perimeter=stepPerimeter;whiteSpace=wrap;html=1;fixedSize=1;rotation=-180;" parent="1" vertex="1">
          <mxGeometry x="1320" y="1320" width="60" height="70" as="geometry" />
        </mxCell>
        <mxCell id="zkeMFTvEMQsarWQc4OUX-65" style="edgeStyle=orthogonalEdgeStyle;rounded=0;orthogonalLoop=1;jettySize=auto;html=1;entryX=0.167;entryY=0.757;entryDx=0;entryDy=0;entryPerimeter=0;" parent="1" source="zkeMFTvEMQsarWQc4OUX-94" target="zkeMFTvEMQsarWQc4OUX-64" edge="1">
          <mxGeometry relative="1" as="geometry">
            <Array as="points">
              <mxPoint x="1450" y="1189" />
              <mxPoint x="1450" y="1337" />
            </Array>
          </mxGeometry>
        </mxCell>
        <mxCell id="zkeMFTvEMQsarWQc4OUX-66" style="edgeStyle=orthogonalEdgeStyle;rounded=0;orthogonalLoop=1;jettySize=auto;html=1;entryX=0.15;entryY=0.729;entryDx=0;entryDy=0;entryPerimeter=0;" parent="1" source="zkeMFTvEMQsarWQc4OUX-68" target="zkeMFTvEMQsarWQc4OUX-27" edge="1">
          <mxGeometry relative="1" as="geometry">
            <Array as="points">
              <mxPoint x="1590" y="1470" />
              <mxPoint x="1480" y="1470" />
            </Array>
          </mxGeometry>
        </mxCell>
        <mxCell id="zkeMFTvEMQsarWQc4OUX-67" value="" style="edgeStyle=orthogonalEdgeStyle;rounded=0;orthogonalLoop=1;jettySize=auto;html=1;entryDx=0;entryDy=0;entryPerimeter=0;" parent="1" source="zkeMFTvEMQsarWQc4OUX-26" target="zkeMFTvEMQsarWQc4OUX-68" edge="1">
          <mxGeometry relative="1" as="geometry">
            <mxPoint x="1110" y="1400" as="sourcePoint" />
            <mxPoint x="1371" y="1469" as="targetPoint" />
            <Array as="points">
              <mxPoint x="1110" y="1610" />
              <mxPoint x="1590" y="1610" />
              <mxPoint x="1590" y="1469" />
            </Array>
          </mxGeometry>
        </mxCell>
        <mxCell id="zkeMFTvEMQsarWQc4OUX-68" value="" style="shape=waypoint;sketch=0;fillStyle=solid;size=6;pointerEvents=1;points=[];fillColor=none;resizable=0;rotatable=0;perimeter=centerPerimeter;snapToPoint=1;" parent="1" vertex="1">
          <mxGeometry x="1580" y="1454" width="20" height="20" as="geometry" />
        </mxCell>
        <mxCell id="zkeMFTvEMQsarWQc4OUX-69" value="" style="shape=trapezoid;perimeter=trapezoidPerimeter;whiteSpace=wrap;html=1;fixedSize=1;rotation=-90;" parent="1" vertex="1">
          <mxGeometry x="1130" y="1380" width="170" height="60" as="geometry" />
        </mxCell>
        <mxCell id="zkeMFTvEMQsarWQc4OUX-70" style="edgeStyle=orthogonalEdgeStyle;rounded=0;orthogonalLoop=1;jettySize=auto;html=1;exitDx=0;exitDy=0;entryX=0.651;entryY=0.989;entryDx=0;entryDy=0;entryPerimeter=0;" parent="1" source="zkeMFTvEMQsarWQc4OUX-97" target="zkeMFTvEMQsarWQc4OUX-69" edge="1">
          <mxGeometry relative="1" as="geometry">
            <Array as="points">
              <mxPoint x="1270" y="1355" />
              <mxPoint x="1270" y="1384" />
            </Array>
          </mxGeometry>
        </mxCell>
        <mxCell id="zkeMFTvEMQsarWQc4OUX-71" style="edgeStyle=orthogonalEdgeStyle;rounded=0;orthogonalLoop=1;jettySize=auto;html=1;entryX=0.367;entryY=1;entryDx=0;entryDy=0;entryPerimeter=0;" parent="1" source="zkeMFTvEMQsarWQc4OUX-100" target="zkeMFTvEMQsarWQc4OUX-69" edge="1">
          <mxGeometry relative="1" as="geometry">
            <Array as="points">
              <mxPoint x="1265" y="1480" />
              <mxPoint x="1265" y="1433" />
            </Array>
          </mxGeometry>
        </mxCell>
        <mxCell id="zkeMFTvEMQsarWQc4OUX-72" style="edgeStyle=orthogonalEdgeStyle;rounded=0;orthogonalLoop=1;jettySize=auto;html=1;exitX=0;exitY=0.5;exitDx=0;exitDy=0;entryX=1;entryY=0.5;entryDx=0;entryDy=0;" parent="1" source="zkeMFTvEMQsarWQc4OUX-73" target="zkeMFTvEMQsarWQc4OUX-26" edge="1">
          <mxGeometry relative="1" as="geometry" />
        </mxCell>
        <mxCell id="zkeMFTvEMQsarWQc4OUX-73" value="PCSrcMux" style="text;html=1;align=center;verticalAlign=middle;whiteSpace=wrap;rounded=0;" parent="1" vertex="1">
          <mxGeometry x="1185" y="1400" width="60" height="30" as="geometry" />
        </mxCell>
        <mxCell id="zkeMFTvEMQsarWQc4OUX-74" value="btaken" style="rounded=1;whiteSpace=wrap;html=1;" parent="1" vertex="1">
          <mxGeometry x="1475" y="1070" width="80" height="40" as="geometry" />
        </mxCell>
        <mxCell id="zkeMFTvEMQsarWQc4OUX-75" style="edgeStyle=orthogonalEdgeStyle;rounded=0;orthogonalLoop=1;jettySize=auto;html=1;exitX=0.5;exitY=1;exitDx=0;exitDy=0;entryX=0.5;entryY=0;entryDx=0;entryDy=0;" parent="1" source="zkeMFTvEMQsarWQc4OUX-76" target="zkeMFTvEMQsarWQc4OUX-77" edge="1">
          <mxGeometry relative="1" as="geometry" />
        </mxCell>
        <mxCell id="zkeMFTvEMQsarWQc4OUX-76" value="branch" style="text;html=1;align=center;verticalAlign=middle;whiteSpace=wrap;rounded=0;" parent="1" vertex="1">
          <mxGeometry x="1590" y="630" width="110" height="30" as="geometry" />
        </mxCell>
        <mxCell id="zkeMFTvEMQsarWQc4OUX-77" value="branch" style="rounded=1;whiteSpace=wrap;html=1;" parent="1" vertex="1">
          <mxGeometry x="1600" y="680" width="80" height="40" as="geometry" />
        </mxCell>
        <mxCell id="zkeMFTvEMQsarWQc4OUX-78" value="branch" style="rounded=1;whiteSpace=wrap;html=1;" parent="1" vertex="1">
          <mxGeometry x="1575.9799999999996" y="1640" width="80" height="40" as="geometry" />
        </mxCell>
        <mxCell id="zkeMFTvEMQsarWQc4OUX-79" value="btaken" style="rounded=1;whiteSpace=wrap;html=1;" parent="1" vertex="1">
          <mxGeometry x="1575.9799999999996" y="1700" width="80" height="40" as="geometry" />
        </mxCell>
        <mxCell id="zkeMFTvEMQsarWQc4OUX-80" value="" style="verticalLabelPosition=bottom;shadow=0;dashed=0;align=center;html=1;verticalAlign=top;shape=mxgraph.electrical.logic_gates.logic_gate;operation=and;rotation=-180;" parent="1" vertex="1">
          <mxGeometry x="1414" y="1660" width="100" height="60" as="geometry" />
        </mxCell>
        <mxCell id="zkeMFTvEMQsarWQc4OUX-81" style="edgeStyle=orthogonalEdgeStyle;rounded=0;orthogonalLoop=1;jettySize=auto;html=1;entryX=0;entryY=0.75;entryDx=0;entryDy=0;entryPerimeter=0;" parent="1" source="zkeMFTvEMQsarWQc4OUX-78" target="zkeMFTvEMQsarWQc4OUX-80" edge="1">
          <mxGeometry relative="1" as="geometry" />
        </mxCell>
        <mxCell id="zkeMFTvEMQsarWQc4OUX-82" style="edgeStyle=orthogonalEdgeStyle;rounded=0;orthogonalLoop=1;jettySize=auto;html=1;entryX=0;entryY=0.25;entryDx=0;entryDy=0;entryPerimeter=0;" parent="1" source="zkeMFTvEMQsarWQc4OUX-79" target="zkeMFTvEMQsarWQc4OUX-80" edge="1">
          <mxGeometry relative="1" as="geometry" />
        </mxCell>
        <mxCell id="zkeMFTvEMQsarWQc4OUX-83" style="edgeStyle=orthogonalEdgeStyle;rounded=0;orthogonalLoop=1;jettySize=auto;html=1;entryX=0.5;entryY=0;entryDx=0;entryDy=0;" parent="1" source="zkeMFTvEMQsarWQc4OUX-84" target="zkeMFTvEMQsarWQc4OUX-16" edge="1">
          <mxGeometry relative="1" as="geometry" />
        </mxCell>
        <mxCell id="zkeMFTvEMQsarWQc4OUX-84" value="ALUControl" style="text;html=1;align=center;verticalAlign=middle;whiteSpace=wrap;rounded=0;" parent="1" vertex="1">
          <mxGeometry x="1465" y="630" width="110" height="30" as="geometry" />
        </mxCell>
        <mxCell id="zkeMFTvEMQsarWQc4OUX-85" value="&lt;b&gt;&lt;font style=&quot;font-size: 50px;&quot;&gt;LOAD&lt;/font&gt;&lt;/b&gt;" style="text;html=1;align=center;verticalAlign=middle;whiteSpace=wrap;rounded=0;" parent="1" vertex="1">
          <mxGeometry x="303" y="370" width="247" height="170" as="geometry" />
        </mxCell>
        <mxCell id="zkeMFTvEMQsarWQc4OUX-86" style="edgeStyle=orthogonalEdgeStyle;rounded=0;orthogonalLoop=1;jettySize=auto;html=1;entryX=0;entryY=0.5;entryDx=0;entryDy=0;" parent="1" source="zkeMFTvEMQsarWQc4OUX-87" target="zkeMFTvEMQsarWQc4OUX-22" edge="1">
          <mxGeometry relative="1" as="geometry">
            <Array as="points">
              <mxPoint x="1500" y="1179" />
              <mxPoint x="1500" y="1270" />
              <mxPoint x="790" y="1270" />
              <mxPoint x="790" y="1055" />
            </Array>
          </mxGeometry>
        </mxCell>
        <mxCell id="zkeMFTvEMQsarWQc4OUX-87" value="" style="shape=trapezoid;perimeter=trapezoidPerimeter;whiteSpace=wrap;html=1;fixedSize=1;rotation=-90;fillColor=#ffe6cc;strokeColor=#d79b00;" parent="1" vertex="1">
          <mxGeometry x="1530" y="1149" width="230" height="60" as="geometry" />
        </mxCell>
        <mxCell id="zkeMFTvEMQsarWQc4OUX-88" value="0" style="text;html=1;align=center;verticalAlign=middle;whiteSpace=wrap;rounded=0;" parent="1" vertex="1">
          <mxGeometry x="1615" y="1096.25" width="60" height="30" as="geometry" />
        </mxCell>
        <mxCell id="zkeMFTvEMQsarWQc4OUX-89" value="1" style="text;html=1;align=center;verticalAlign=middle;whiteSpace=wrap;rounded=0;" parent="1" vertex="1">
          <mxGeometry x="1615" y="1135.25" width="60" height="30" as="geometry" />
        </mxCell>
        <mxCell id="zkeMFTvEMQsarWQc4OUX-90" value="2" style="text;html=1;align=center;verticalAlign=middle;whiteSpace=wrap;rounded=0;" parent="1" vertex="1">
          <mxGeometry x="1615" y="1175.25" width="60" height="30" as="geometry" />
        </mxCell>
        <mxCell id="zkeMFTvEMQsarWQc4OUX-91" value="3" style="text;html=1;align=center;verticalAlign=middle;whiteSpace=wrap;rounded=0;" parent="1" vertex="1">
          <mxGeometry x="1615" y="1215.25" width="60" height="30" as="geometry" />
        </mxCell>
        <mxCell id="zkeMFTvEMQsarWQc4OUX-92" value="" style="edgeStyle=orthogonalEdgeStyle;rounded=0;orthogonalLoop=1;jettySize=auto;html=1;entryDx=0;entryDy=0;entryPerimeter=0;" parent="1" source="zkeMFTvEMQsarWQc4OUX-63" target="zkeMFTvEMQsarWQc4OUX-94" edge="1">
          <mxGeometry relative="1" as="geometry">
            <Array as="points" />
            <mxPoint x="1290" y="1189" as="sourcePoint" />
            <mxPoint x="1370" y="1337" as="targetPoint" />
          </mxGeometry>
        </mxCell>
        <mxCell id="zkeMFTvEMQsarWQc4OUX-136" style="edgeStyle=orthogonalEdgeStyle;rounded=0;orthogonalLoop=1;jettySize=auto;html=1;entryX=1;entryY=0.5;entryDx=0;entryDy=0;" parent="1" source="zkeMFTvEMQsarWQc4OUX-94" target="zkeMFTvEMQsarWQc4OUX-90" edge="1">
          <mxGeometry relative="1" as="geometry">
            <Array as="points">
              <mxPoint x="1560" y="1190" />
              <mxPoint x="1560" y="1420" />
              <mxPoint x="1760" y="1420" />
              <mxPoint x="1760" y="1190" />
            </Array>
          </mxGeometry>
        </mxCell>
        <mxCell id="zkeMFTvEMQsarWQc4OUX-94" value="" style="shape=waypoint;sketch=0;fillStyle=solid;size=6;pointerEvents=1;points=[];fillColor=none;resizable=0;rotatable=0;perimeter=centerPerimeter;snapToPoint=1;" parent="1" vertex="1">
          <mxGeometry x="1440" y="1179" width="20" height="20" as="geometry" />
        </mxCell>
        <mxCell id="zkeMFTvEMQsarWQc4OUX-95" value="" style="edgeStyle=orthogonalEdgeStyle;rounded=0;orthogonalLoop=1;jettySize=auto;html=1;exitX=1;exitY=0.5;exitDx=0;exitDy=0;entryDx=0;entryDy=0;entryPerimeter=0;" parent="1" source="zkeMFTvEMQsarWQc4OUX-64" target="zkeMFTvEMQsarWQc4OUX-97" edge="1">
          <mxGeometry relative="1" as="geometry">
            <mxPoint x="1320" y="1355" as="sourcePoint" />
            <mxPoint x="1244" y="1384" as="targetPoint" />
          </mxGeometry>
        </mxCell>
        <mxCell id="zkeMFTvEMQsarWQc4OUX-137" style="edgeStyle=orthogonalEdgeStyle;rounded=0;orthogonalLoop=1;jettySize=auto;html=1;entryX=1;entryY=0.5;entryDx=0;entryDy=0;" parent="1" source="zkeMFTvEMQsarWQc4OUX-97" target="zkeMFTvEMQsarWQc4OUX-91" edge="1">
          <mxGeometry relative="1" as="geometry">
            <Array as="points">
              <mxPoint x="1288" y="1310" />
              <mxPoint x="1840" y="1310" />
              <mxPoint x="1840" y="1230" />
            </Array>
          </mxGeometry>
        </mxCell>
        <mxCell id="zkeMFTvEMQsarWQc4OUX-97" value="" style="shape=waypoint;sketch=0;fillStyle=solid;size=6;pointerEvents=1;points=[];fillColor=none;resizable=0;rotatable=0;perimeter=centerPerimeter;snapToPoint=1;" parent="1" vertex="1">
          <mxGeometry x="1278" y="1345" width="20" height="20" as="geometry" />
        </mxCell>
        <mxCell id="zkeMFTvEMQsarWQc4OUX-98" value="" style="edgeStyle=orthogonalEdgeStyle;rounded=0;orthogonalLoop=1;jettySize=auto;html=1;entryDx=0;entryDy=0;entryPerimeter=0;" parent="1" source="zkeMFTvEMQsarWQc4OUX-27" target="zkeMFTvEMQsarWQc4OUX-100" edge="1">
          <mxGeometry relative="1" as="geometry">
            <mxPoint x="1320" y="1485" as="sourcePoint" />
            <mxPoint x="1245" y="1433" as="targetPoint" />
          </mxGeometry>
        </mxCell>
        <mxCell id="zkeMFTvEMQsarWQc4OUX-138" style="edgeStyle=orthogonalEdgeStyle;rounded=0;orthogonalLoop=1;jettySize=auto;html=1;entryX=1;entryY=0.25;entryDx=0;entryDy=0;" parent="1" source="zkeMFTvEMQsarWQc4OUX-100" target="zkeMFTvEMQsarWQc4OUX-133" edge="1">
          <mxGeometry relative="1" as="geometry">
            <Array as="points">
              <mxPoint x="1280" y="1420" />
              <mxPoint x="1910" y="1420" />
              <mxPoint x="1910" y="1259" />
            </Array>
          </mxGeometry>
        </mxCell>
        <mxCell id="zkeMFTvEMQsarWQc4OUX-100" value="" style="shape=waypoint;sketch=0;fillStyle=solid;size=6;pointerEvents=1;points=[];fillColor=none;resizable=0;rotatable=0;perimeter=centerPerimeter;snapToPoint=1;" parent="1" vertex="1">
          <mxGeometry x="1270" y="1470" width="20" height="20" as="geometry" />
        </mxCell>
        <mxCell id="zkeMFTvEMQsarWQc4OUX-101" value="LU" style="text;html=1;align=center;verticalAlign=middle;whiteSpace=wrap;rounded=0;fontStyle=1;" parent="1" vertex="1">
          <mxGeometry x="1750" y="1169" width="60" height="30" as="geometry" />
        </mxCell>
        <mxCell id="zkeMFTvEMQsarWQc4OUX-102" value="AU" style="text;html=1;align=center;verticalAlign=middle;whiteSpace=wrap;rounded=0;fontStyle=1;" parent="1" vertex="1">
          <mxGeometry x="1818" y="1209" width="60" height="30" as="geometry" />
        </mxCell>
        <mxCell id="zkeMFTvEMQsarWQc4OUX-103" value="J/JL" style="text;html=1;align=center;verticalAlign=middle;whiteSpace=wrap;rounded=0;fontStyle=1;" parent="1" vertex="1">
          <mxGeometry x="1895" y="1239" width="60" height="30" as="geometry" />
        </mxCell>
        <mxCell id="zkeMFTvEMQsarWQc4OUX-104" style="edgeStyle=orthogonalEdgeStyle;rounded=0;orthogonalLoop=1;jettySize=auto;html=1;entryX=1;entryY=0.5;entryDx=0;entryDy=0;" parent="1" source="zkeMFTvEMQsarWQc4OUX-105" target="zkeMFTvEMQsarWQc4OUX-87" edge="1">
          <mxGeometry relative="1" as="geometry">
            <Array as="points">
              <mxPoint x="1795" y="830" />
              <mxPoint x="1645" y="830" />
            </Array>
          </mxGeometry>
        </mxCell>
        <mxCell id="zkeMFTvEMQsarWQc4OUX-105" value="RFSrcMuxSel[2:0]" style="text;html=1;align=center;verticalAlign=middle;whiteSpace=wrap;rounded=0;" parent="1" vertex="1">
          <mxGeometry x="1740" y="630" width="110" height="30" as="geometry" />
        </mxCell>
        <mxCell id="zkeMFTvEMQsarWQc4OUX-106" value="R/I" style="text;html=1;align=center;verticalAlign=middle;whiteSpace=wrap;rounded=0;fontStyle=1;" parent="1" vertex="1">
          <mxGeometry x="1700" y="1090" width="60" height="30" as="geometry" />
        </mxCell>
        <mxCell id="zkeMFTvEMQsarWQc4OUX-107" style="edgeStyle=orthogonalEdgeStyle;rounded=0;orthogonalLoop=1;jettySize=auto;html=1;exitX=1;exitY=0.5;exitDx=0;exitDy=0;exitPerimeter=0;entryX=0;entryY=0.5;entryDx=0;entryDy=0;" parent="1" source="zkeMFTvEMQsarWQc4OUX-108" target="zkeMFTvEMQsarWQc4OUX-69" edge="1">
          <mxGeometry relative="1" as="geometry" />
        </mxCell>
        <mxCell id="zkeMFTvEMQsarWQc4OUX-108" value="" style="verticalLabelPosition=bottom;shadow=0;dashed=0;align=center;html=1;verticalAlign=top;shape=mxgraph.electrical.logic_gates.logic_gate;operation=or;rotation=-180;" parent="1" vertex="1">
          <mxGeometry x="1268" y="1676.5" width="100" height="60" as="geometry" />
        </mxCell>
        <mxCell id="zkeMFTvEMQsarWQc4OUX-109" style="edgeStyle=orthogonalEdgeStyle;rounded=0;orthogonalLoop=1;jettySize=auto;html=1;entryX=0;entryY=0.75;entryDx=0;entryDy=0;entryPerimeter=0;" parent="1" source="zkeMFTvEMQsarWQc4OUX-80" target="zkeMFTvEMQsarWQc4OUX-108" edge="1">
          <mxGeometry relative="1" as="geometry" />
        </mxCell>
        <mxCell id="zkeMFTvEMQsarWQc4OUX-110" value="jal" style="rounded=1;whiteSpace=wrap;html=1;" parent="1" vertex="1">
          <mxGeometry x="1453" y="1762.5" width="80" height="40" as="geometry" />
        </mxCell>
        <mxCell id="zkeMFTvEMQsarWQc4OUX-111" style="edgeStyle=orthogonalEdgeStyle;rounded=0;orthogonalLoop=1;jettySize=auto;html=1;entryX=0;entryY=0.25;entryDx=0;entryDy=0;entryPerimeter=0;" parent="1" source="zkeMFTvEMQsarWQc4OUX-110" target="zkeMFTvEMQsarWQc4OUX-108" edge="1">
          <mxGeometry relative="1" as="geometry" />
        </mxCell>
        <mxCell id="zkeMFTvEMQsarWQc4OUX-112" value="jal" style="rounded=1;whiteSpace=wrap;html=1;" parent="1" vertex="1">
          <mxGeometry x="1878" y="685.5" width="80" height="40" as="geometry" />
        </mxCell>
        <mxCell id="zkeMFTvEMQsarWQc4OUX-113" style="edgeStyle=orthogonalEdgeStyle;rounded=0;orthogonalLoop=1;jettySize=auto;html=1;exitX=0.5;exitY=1;exitDx=0;exitDy=0;entryX=0.5;entryY=0;entryDx=0;entryDy=0;" parent="1" source="zkeMFTvEMQsarWQc4OUX-114" target="zkeMFTvEMQsarWQc4OUX-112" edge="1">
          <mxGeometry relative="1" as="geometry" />
        </mxCell>
        <mxCell id="zkeMFTvEMQsarWQc4OUX-114" value="jal" style="text;html=1;align=center;verticalAlign=middle;whiteSpace=wrap;rounded=0;" parent="1" vertex="1">
          <mxGeometry x="1878" y="625.5" width="77" height="30" as="geometry" />
        </mxCell>
        <mxCell id="zkeMFTvEMQsarWQc4OUX-115" style="edgeStyle=orthogonalEdgeStyle;rounded=0;orthogonalLoop=1;jettySize=auto;html=1;entryX=0;entryY=0.25;entryDx=0;entryDy=0;" parent="1" source="zkeMFTvEMQsarWQc4OUX-116" target="zkeMFTvEMQsarWQc4OUX-64" edge="1">
          <mxGeometry relative="1" as="geometry" />
        </mxCell>
        <mxCell id="zkeMFTvEMQsarWQc4OUX-116" value="" style="shape=trapezoid;perimeter=trapezoidPerimeter;whiteSpace=wrap;html=1;fixedSize=1;rotation=-90;" parent="1" vertex="1">
          <mxGeometry x="1407" y="1366.5" width="73.75" height="29" as="geometry" />
        </mxCell>
        <mxCell id="zkeMFTvEMQsarWQc4OUX-117" style="edgeStyle=orthogonalEdgeStyle;rounded=0;orthogonalLoop=1;jettySize=auto;html=1;entryX=0.358;entryY=1.022;entryDx=0;entryDy=0;entryPerimeter=0;exitX=0.5;exitY=0.775;exitDx=0;exitDy=0;exitPerimeter=0;" parent="1" source="zkeMFTvEMQsarWQc4OUX-68" target="zkeMFTvEMQsarWQc4OUX-116" edge="1">
          <mxGeometry relative="1" as="geometry">
            <Array as="points">
              <mxPoint x="1590" y="1470.5" />
              <mxPoint x="1519" y="1470.5" />
              <mxPoint x="1519" y="1391.5" />
            </Array>
          </mxGeometry>
        </mxCell>
        <mxCell id="zkeMFTvEMQsarWQc4OUX-118" value="" style="endArrow=classic;html=1;rounded=0;entryDx=0;entryDy=0;entryPerimeter=0;" parent="1" target="zkeMFTvEMQsarWQc4OUX-120" edge="1">
          <mxGeometry width="50" height="50" relative="1" as="geometry">
            <mxPoint x="1250" y="870" as="sourcePoint" />
            <mxPoint x="1470" y="869.5" as="targetPoint" />
          </mxGeometry>
        </mxCell>
        <mxCell id="zkeMFTvEMQsarWQc4OUX-119" style="edgeStyle=orthogonalEdgeStyle;rounded=0;orthogonalLoop=1;jettySize=auto;html=1;entryX=0.75;entryY=1;entryDx=0;entryDy=0;" parent="1" source="zkeMFTvEMQsarWQc4OUX-120" target="zkeMFTvEMQsarWQc4OUX-116" edge="1">
          <mxGeometry relative="1" as="geometry">
            <Array as="points">
              <mxPoint x="1286" y="870.5" />
              <mxPoint x="1286" y="1165.5" />
              <mxPoint x="1476" y="1165.5" />
              <mxPoint x="1476" y="1362.5" />
            </Array>
          </mxGeometry>
        </mxCell>
        <mxCell id="zkeMFTvEMQsarWQc4OUX-120" value="" style="shape=waypoint;sketch=0;fillStyle=solid;size=6;pointerEvents=1;points=[];fillColor=none;resizable=0;rotatable=0;perimeter=centerPerimeter;snapToPoint=1;" parent="1" vertex="1">
          <mxGeometry x="1280" y="860" width="20" height="20" as="geometry" />
        </mxCell>
        <mxCell id="zkeMFTvEMQsarWQc4OUX-121" value="jalr" style="rounded=1;whiteSpace=wrap;html=1;" parent="1" vertex="1">
          <mxGeometry x="2001" y="685.5" width="80" height="40" as="geometry" />
        </mxCell>
        <mxCell id="zkeMFTvEMQsarWQc4OUX-122" style="edgeStyle=orthogonalEdgeStyle;rounded=0;orthogonalLoop=1;jettySize=auto;html=1;entryX=0.5;entryY=0;entryDx=0;entryDy=0;" parent="1" source="zkeMFTvEMQsarWQc4OUX-123" target="zkeMFTvEMQsarWQc4OUX-121" edge="1">
          <mxGeometry relative="1" as="geometry" />
        </mxCell>
        <mxCell id="zkeMFTvEMQsarWQc4OUX-123" value="jalr" style="text;html=1;align=center;verticalAlign=middle;whiteSpace=wrap;rounded=0;" parent="1" vertex="1">
          <mxGeometry x="2001" y="625.5" width="77" height="30" as="geometry" />
        </mxCell>
        <mxCell id="zkeMFTvEMQsarWQc4OUX-124" style="edgeStyle=orthogonalEdgeStyle;rounded=0;orthogonalLoop=1;jettySize=auto;html=1;entryX=1;entryY=0.25;entryDx=0;entryDy=0;" parent="1" source="zkeMFTvEMQsarWQc4OUX-125" target="zkeMFTvEMQsarWQc4OUX-116" edge="1">
          <mxGeometry relative="1" as="geometry">
            <Array as="points">
              <mxPoint x="1404" y="1283.5" />
              <mxPoint x="1439" y="1283.5" />
            </Array>
          </mxGeometry>
        </mxCell>
        <mxCell id="zkeMFTvEMQsarWQc4OUX-125" value="jalr" style="rounded=1;whiteSpace=wrap;html=1;" parent="1" vertex="1">
          <mxGeometry x="1373" y="1225" width="62" height="27" as="geometry" />
        </mxCell>
        <mxCell id="zkeMFTvEMQsarWQc4OUX-126" value="RAM&lt;div&gt;(DATA Mem)&lt;/div&gt;" style="rounded=0;whiteSpace=wrap;html=1;fontStyle=1;fontSize=31;" parent="1" vertex="1">
          <mxGeometry x="2740" y="669.5" width="360" height="900" as="geometry" />
        </mxCell>
        <mxCell id="zkeMFTvEMQsarWQc4OUX-132" style="edgeStyle=orthogonalEdgeStyle;rounded=0;orthogonalLoop=1;jettySize=auto;html=1;entryX=0;entryY=0.5;entryDx=0;entryDy=0;" parent="1" source="zkeMFTvEMQsarWQc4OUX-128" target="zkeMFTvEMQsarWQc4OUX-129" edge="1">
          <mxGeometry relative="1" as="geometry" />
        </mxCell>
        <mxCell id="zkeMFTvEMQsarWQc4OUX-128" value="WE" style="text;html=1;align=center;verticalAlign=middle;whiteSpace=wrap;rounded=0;" parent="1" vertex="1">
          <mxGeometry x="2413" y="625.5" width="77" height="30" as="geometry" />
        </mxCell>
        <mxCell id="zkeMFTvEMQsarWQc4OUX-129" value="WE" style="text;html=1;align=center;verticalAlign=middle;whiteSpace=wrap;rounded=0;" parent="1" vertex="1">
          <mxGeometry x="2740" y="690" width="77" height="30" as="geometry" />
        </mxCell>
        <mxCell id="zkeMFTvEMQsarWQc4OUX-133" value="4" style="text;html=1;align=center;verticalAlign=middle;whiteSpace=wrap;rounded=0;" parent="1" vertex="1">
          <mxGeometry x="1615" y="1251.75" width="60" height="30" as="geometry" />
        </mxCell>
        <mxCell id="zkeMFTvEMQsarWQc4OUX-134" value="R_DATA" style="text;html=1;align=center;verticalAlign=middle;whiteSpace=wrap;rounded=0;" parent="1" vertex="1">
          <mxGeometry x="2740" y="1135.25" width="77" height="30" as="geometry" />
        </mxCell>
        <mxCell id="zkeMFTvEMQsarWQc4OUX-141" value="" style="edgeStyle=orthogonalEdgeStyle;rounded=0;orthogonalLoop=1;jettySize=auto;html=1;exitX=1;exitY=0.5;exitDx=0;exitDy=0;entryDx=0;entryDy=0;" parent="1" source="zkeMFTvEMQsarWQc4OUX-16" target="zkeMFTvEMQsarWQc4OUX-142" edge="1">
          <mxGeometry relative="1" as="geometry">
            <mxPoint x="1580" y="920" as="sourcePoint" />
            <mxPoint x="1675" y="1111" as="targetPoint" />
          </mxGeometry>
        </mxCell>
        <mxCell id="zkeMFTvEMQsarWQc4OUX-142" value="" style="shape=waypoint;sketch=0;fillStyle=solid;size=6;pointerEvents=1;points=[];fillColor=none;resizable=0;rotatable=0;perimeter=centerPerimeter;snapToPoint=1;" parent="1" vertex="1">
          <mxGeometry x="1680" y="910" width="20" height="20" as="geometry" />
        </mxCell>
        <mxCell id="zkeMFTvEMQsarWQc4OUX-144" style="edgeStyle=orthogonalEdgeStyle;rounded=0;orthogonalLoop=1;jettySize=auto;html=1;entryX=0;entryY=0.278;entryDx=0;entryDy=0;entryPerimeter=0;" parent="1" source="zkeMFTvEMQsarWQc4OUX-154" target="zkeMFTvEMQsarWQc4OUX-126" edge="1">
          <mxGeometry relative="1" as="geometry" />
        </mxCell>
        <mxCell id="zkeMFTvEMQsarWQc4OUX-145" value="ADDR" style="text;html=1;align=center;verticalAlign=middle;whiteSpace=wrap;rounded=0;" parent="1" vertex="1">
          <mxGeometry x="2740" y="905" width="77" height="30" as="geometry" />
        </mxCell>
        <mxCell id="zkeMFTvEMQsarWQc4OUX-146" value="" style="edgeStyle=orthogonalEdgeStyle;rounded=0;orthogonalLoop=1;jettySize=auto;html=1;exitX=1;exitY=0.5;exitDx=0;exitDy=0;entryDx=0;entryDy=0;entryPerimeter=0;" parent="1" source="zkeMFTvEMQsarWQc4OUX-19" target="zkeMFTvEMQsarWQc4OUX-147" edge="1">
          <mxGeometry relative="1" as="geometry">
            <mxPoint x="1250" y="995" as="sourcePoint" />
            <mxPoint x="1342" y="996" as="targetPoint" />
          </mxGeometry>
        </mxCell>
        <mxCell id="zkeMFTvEMQsarWQc4OUX-147" value="" style="shape=waypoint;sketch=0;fillStyle=solid;size=6;pointerEvents=1;points=[];fillColor=none;resizable=0;rotatable=0;perimeter=centerPerimeter;snapToPoint=1;" parent="1" vertex="1">
          <mxGeometry x="1290" y="985" width="20" height="20" as="geometry" />
        </mxCell>
        <mxCell id="zkeMFTvEMQsarWQc4OUX-148" style="edgeStyle=orthogonalEdgeStyle;rounded=0;orthogonalLoop=1;jettySize=auto;html=1;entryX=0.006;entryY=0.622;entryDx=0;entryDy=0;entryPerimeter=0;" parent="1" source="zkeMFTvEMQsarWQc4OUX-147" target="zkeMFTvEMQsarWQc4OUX-126" edge="1">
          <mxGeometry relative="1" as="geometry">
            <Array as="points">
              <mxPoint x="1300" y="1630" />
              <mxPoint x="2025" y="1630" />
              <mxPoint x="2025" y="1229" />
            </Array>
          </mxGeometry>
        </mxCell>
        <mxCell id="zkeMFTvEMQsarWQc4OUX-149" value="W_DATA" style="text;html=1;align=center;verticalAlign=middle;whiteSpace=wrap;rounded=0;" parent="1" vertex="1">
          <mxGeometry x="2740" y="1215.25" width="77" height="30" as="geometry" />
        </mxCell>
        <mxCell id="zkeMFTvEMQsarWQc4OUX-158" style="edgeStyle=orthogonalEdgeStyle;rounded=0;orthogonalLoop=1;jettySize=auto;html=1;entryX=1;entryY=0.5;entryDx=0;entryDy=0;" parent="1" source="zkeMFTvEMQsarWQc4OUX-150" target="zkeMFTvEMQsarWQc4OUX-89" edge="1">
          <mxGeometry relative="1" as="geometry" />
        </mxCell>
        <mxCell id="zkeMFTvEMQsarWQc4OUX-150" value="&lt;b&gt;&lt;font style=&quot;font-size: 16px;&quot;&gt;LOAD_VAL_DECISION&lt;/font&gt;&lt;/b&gt;" style="rounded=0;whiteSpace=wrap;html=1;fillColor=#ffe6cc;strokeColor=#d79b00;" parent="1" vertex="1">
          <mxGeometry x="2320" y="1102.75" width="200" height="110" as="geometry" />
        </mxCell>
        <mxCell id="zkeMFTvEMQsarWQc4OUX-152" style="edgeStyle=orthogonalEdgeStyle;rounded=0;orthogonalLoop=1;jettySize=auto;html=1;entryX=0.997;entryY=0.432;entryDx=0;entryDy=0;entryPerimeter=0;" parent="1" source="zkeMFTvEMQsarWQc4OUX-134" target="zkeMFTvEMQsarWQc4OUX-150" edge="1">
          <mxGeometry relative="1" as="geometry" />
        </mxCell>
        <mxCell id="zkeMFTvEMQsarWQc4OUX-153" value="" style="edgeStyle=orthogonalEdgeStyle;rounded=0;orthogonalLoop=1;jettySize=auto;html=1;entryDx=0;entryDy=0;entryPerimeter=0;" parent="1" source="zkeMFTvEMQsarWQc4OUX-142" target="zkeMFTvEMQsarWQc4OUX-154" edge="1">
          <mxGeometry relative="1" as="geometry">
            <mxPoint x="1690" y="920" as="sourcePoint" />
            <mxPoint x="2740" y="920" as="targetPoint" />
          </mxGeometry>
        </mxCell>
        <mxCell id="zkeMFTvEMQsarWQc4OUX-155" style="edgeStyle=orthogonalEdgeStyle;rounded=0;orthogonalLoop=1;jettySize=auto;html=1;entryX=1;entryY=0.25;entryDx=0;entryDy=0;" parent="1" source="zkeMFTvEMQsarWQc4OUX-154" target="zkeMFTvEMQsarWQc4OUX-150" edge="1">
          <mxGeometry relative="1" as="geometry">
            <Array as="points">
              <mxPoint x="2630" y="1130" />
            </Array>
          </mxGeometry>
        </mxCell>
        <mxCell id="zkeMFTvEMQsarWQc4OUX-154" value="" style="shape=waypoint;sketch=0;fillStyle=solid;size=6;pointerEvents=1;points=[];fillColor=none;resizable=0;rotatable=0;perimeter=centerPerimeter;snapToPoint=1;" parent="1" vertex="1">
          <mxGeometry x="2620" y="910" width="20" height="20" as="geometry" />
        </mxCell>
        <mxCell id="zkeMFTvEMQsarWQc4OUX-157" style="edgeStyle=orthogonalEdgeStyle;rounded=0;orthogonalLoop=1;jettySize=auto;html=1;entryX=0.25;entryY=0;entryDx=0;entryDy=0;" parent="1" source="zkeMFTvEMQsarWQc4OUX-156" target="zkeMFTvEMQsarWQc4OUX-150" edge="1">
          <mxGeometry relative="1" as="geometry" />
        </mxCell>
        <mxCell id="zkeMFTvEMQsarWQc4OUX-156" value="L_MODE" style="text;html=1;align=center;verticalAlign=middle;whiteSpace=wrap;rounded=0;fillColor=#ffe6cc;strokeColor=#d79b00;" parent="1" vertex="1">
          <mxGeometry x="2330" y="625.5" width="77" height="30" as="geometry" />
        </mxCell>
        <mxCell id="zkeMFTvEMQsarWQc4OUX-159" value="ADDR[1:0]" style="text;html=1;align=center;verticalAlign=middle;whiteSpace=wrap;rounded=0;" parent="1" vertex="1">
          <mxGeometry x="2443" y="1110" width="77" height="30" as="geometry" />
        </mxCell>
        <mxCell id="wcq1foTT7ZQvrPHVFRhE-1" value="" style="rounded=0;whiteSpace=wrap;html=1;" parent="1" vertex="1">
          <mxGeometry x="4844" y="380" width="1820" height="1395.5" as="geometry" />
        </mxCell>
        <mxCell id="wcq1foTT7ZQvrPHVFRhE-2" value="ROM&lt;div&gt;(Instruction Mem)&lt;/div&gt;" style="rounded=0;whiteSpace=wrap;html=1;fontStyle=1;fontSize=31;" parent="1" vertex="1">
          <mxGeometry x="4404" y="650" width="240" height="700" as="geometry" />
        </mxCell>
        <mxCell id="wcq1foTT7ZQvrPHVFRhE-3" value="" style="rounded=0;whiteSpace=wrap;html=1;" parent="1" vertex="1">
          <mxGeometry x="5074" y="650" width="280" height="380" as="geometry" />
        </mxCell>
        <mxCell id="wcq1foTT7ZQvrPHVFRhE-4" value="" style="shape=table;startSize=0;container=1;collapsible=0;childLayout=tableLayout;" parent="1" vertex="1">
          <mxGeometry x="5144" y="750" width="140" height="250" as="geometry" />
        </mxCell>
        <mxCell id="wcq1foTT7ZQvrPHVFRhE-5" value="" style="shape=tableRow;horizontal=0;startSize=0;swimlaneHead=0;swimlaneBody=0;strokeColor=inherit;top=0;left=0;bottom=0;right=0;collapsible=0;dropTarget=0;fillColor=none;points=[[0,0.5],[1,0.5]];portConstraint=eastwest;" parent="wcq1foTT7ZQvrPHVFRhE-4" vertex="1">
          <mxGeometry width="140" height="50" as="geometry" />
        </mxCell>
        <mxCell id="wcq1foTT7ZQvrPHVFRhE-6" value="R31" style="shape=partialRectangle;html=1;whiteSpace=wrap;connectable=0;strokeColor=inherit;overflow=hidden;fillColor=none;top=0;left=0;bottom=0;right=0;pointerEvents=1;" parent="wcq1foTT7ZQvrPHVFRhE-5" vertex="1">
          <mxGeometry width="140" height="50" as="geometry">
            <mxRectangle width="140" height="50" as="alternateBounds" />
          </mxGeometry>
        </mxCell>
        <mxCell id="wcq1foTT7ZQvrPHVFRhE-7" value="" style="shape=tableRow;horizontal=0;startSize=0;swimlaneHead=0;swimlaneBody=0;strokeColor=inherit;top=0;left=0;bottom=0;right=0;collapsible=0;dropTarget=0;fillColor=none;points=[[0,0.5],[1,0.5]];portConstraint=eastwest;" parent="wcq1foTT7ZQvrPHVFRhE-4" vertex="1">
          <mxGeometry y="50" width="140" height="50" as="geometry" />
        </mxCell>
        <mxCell id="wcq1foTT7ZQvrPHVFRhE-8" value="R30" style="shape=partialRectangle;html=1;whiteSpace=wrap;connectable=0;strokeColor=inherit;overflow=hidden;fillColor=none;top=0;left=0;bottom=0;right=0;pointerEvents=1;" parent="wcq1foTT7ZQvrPHVFRhE-7" vertex="1">
          <mxGeometry width="140" height="50" as="geometry">
            <mxRectangle width="140" height="50" as="alternateBounds" />
          </mxGeometry>
        </mxCell>
        <mxCell id="wcq1foTT7ZQvrPHVFRhE-9" value="" style="shape=tableRow;horizontal=0;startSize=0;swimlaneHead=0;swimlaneBody=0;strokeColor=inherit;top=0;left=0;bottom=0;right=0;collapsible=0;dropTarget=0;fillColor=none;points=[[0,0.5],[1,0.5]];portConstraint=eastwest;" parent="wcq1foTT7ZQvrPHVFRhE-4" vertex="1">
          <mxGeometry y="100" width="140" height="50" as="geometry" />
        </mxCell>
        <mxCell id="wcq1foTT7ZQvrPHVFRhE-10" value="..." style="shape=partialRectangle;html=1;whiteSpace=wrap;connectable=0;strokeColor=inherit;overflow=hidden;fillColor=none;top=0;left=0;bottom=0;right=0;pointerEvents=1;" parent="wcq1foTT7ZQvrPHVFRhE-9" vertex="1">
          <mxGeometry width="140" height="50" as="geometry">
            <mxRectangle width="140" height="50" as="alternateBounds" />
          </mxGeometry>
        </mxCell>
        <mxCell id="wcq1foTT7ZQvrPHVFRhE-11" value="" style="shape=tableRow;horizontal=0;startSize=0;swimlaneHead=0;swimlaneBody=0;strokeColor=inherit;top=0;left=0;bottom=0;right=0;collapsible=0;dropTarget=0;fillColor=none;points=[[0,0.5],[1,0.5]];portConstraint=eastwest;" parent="wcq1foTT7ZQvrPHVFRhE-4" vertex="1">
          <mxGeometry y="150" width="140" height="50" as="geometry" />
        </mxCell>
        <mxCell id="wcq1foTT7ZQvrPHVFRhE-12" value="R1" style="shape=partialRectangle;html=1;whiteSpace=wrap;connectable=0;strokeColor=inherit;overflow=hidden;fillColor=none;top=0;left=0;bottom=0;right=0;pointerEvents=1;" parent="wcq1foTT7ZQvrPHVFRhE-11" vertex="1">
          <mxGeometry width="140" height="50" as="geometry">
            <mxRectangle width="140" height="50" as="alternateBounds" />
          </mxGeometry>
        </mxCell>
        <mxCell id="wcq1foTT7ZQvrPHVFRhE-13" value="" style="shape=tableRow;horizontal=0;startSize=0;swimlaneHead=0;swimlaneBody=0;strokeColor=inherit;top=0;left=0;bottom=0;right=0;collapsible=0;dropTarget=0;fillColor=none;points=[[0,0.5],[1,0.5]];portConstraint=eastwest;" parent="wcq1foTT7ZQvrPHVFRhE-4" vertex="1">
          <mxGeometry y="200" width="140" height="50" as="geometry" />
        </mxCell>
        <mxCell id="wcq1foTT7ZQvrPHVFRhE-14" value="R0(==0 Fix)" style="shape=partialRectangle;html=1;whiteSpace=wrap;connectable=0;strokeColor=inherit;overflow=hidden;fillColor=none;top=0;left=0;bottom=0;right=0;pointerEvents=1;" parent="wcq1foTT7ZQvrPHVFRhE-13" vertex="1">
          <mxGeometry width="140" height="50" as="geometry">
            <mxRectangle width="140" height="50" as="alternateBounds" />
          </mxGeometry>
        </mxCell>
        <mxCell id="wcq1foTT7ZQvrPHVFRhE-15" style="edgeStyle=orthogonalEdgeStyle;rounded=0;orthogonalLoop=1;jettySize=auto;html=1;exitDx=0;exitDy=0;entryX=1;entryY=0.5;entryDx=0;entryDy=0;" parent="1" source="wcq1foTT7ZQvrPHVFRhE-133" target="wcq1foTT7ZQvrPHVFRhE-88" edge="1">
          <mxGeometry relative="1" as="geometry">
            <Array as="points">
              <mxPoint x="5799" y="840" />
              <mxPoint x="5799" y="1031" />
            </Array>
          </mxGeometry>
        </mxCell>
        <mxCell id="wcq1foTT7ZQvrPHVFRhE-16" value="ALU" style="shape=step;perimeter=stepPerimeter;whiteSpace=wrap;html=1;fixedSize=1;fontStyle=1;fontSize=15;" parent="1" vertex="1">
          <mxGeometry x="5564" y="740" width="120" height="200" as="geometry" />
        </mxCell>
        <mxCell id="wcq1foTT7ZQvrPHVFRhE-17" value="" style="endArrow=classic;html=1;rounded=0;entryX=0.083;entryY=0.245;entryDx=0;entryDy=0;entryPerimeter=0;" parent="1" source="wcq1foTT7ZQvrPHVFRhE-120" target="wcq1foTT7ZQvrPHVFRhE-16" edge="1">
          <mxGeometry width="50" height="50" relative="1" as="geometry">
            <mxPoint x="5354" y="790" as="sourcePoint" />
            <mxPoint x="5404" y="740" as="targetPoint" />
          </mxGeometry>
        </mxCell>
        <mxCell id="wcq1foTT7ZQvrPHVFRhE-18" value="RD1" style="text;html=1;align=center;verticalAlign=middle;whiteSpace=wrap;rounded=0;" parent="1" vertex="1">
          <mxGeometry x="5294" y="780" width="60" height="30" as="geometry" />
        </mxCell>
        <mxCell id="wcq1foTT7ZQvrPHVFRhE-19" value="RD2" style="text;html=1;align=center;verticalAlign=middle;whiteSpace=wrap;rounded=0;" parent="1" vertex="1">
          <mxGeometry x="5294" y="900" width="60" height="30" as="geometry" />
        </mxCell>
        <mxCell id="wcq1foTT7ZQvrPHVFRhE-20" value="Register File" style="text;html=1;align=center;verticalAlign=middle;whiteSpace=wrap;rounded=0;fontStyle=1;fontSize=15;" parent="1" vertex="1">
          <mxGeometry x="5159" y="660" width="110" height="30" as="geometry" />
        </mxCell>
        <mxCell id="wcq1foTT7ZQvrPHVFRhE-21" value="Control Unit" style="rounded=0;whiteSpace=wrap;html=1;fontStyle=1;fontSize=31;" parent="1" vertex="1">
          <mxGeometry x="4874" y="410" width="1720" height="170" as="geometry" />
        </mxCell>
        <mxCell id="wcq1foTT7ZQvrPHVFRhE-22" value="WD" style="text;html=1;align=center;verticalAlign=middle;whiteSpace=wrap;rounded=0;" parent="1" vertex="1">
          <mxGeometry x="5074" y="960" width="60" height="30" as="geometry" />
        </mxCell>
        <mxCell id="wcq1foTT7ZQvrPHVFRhE-23" value="RF_&lt;span style=&quot;color: rgba(0, 0, 0, 0); font-family: monospace; font-size: 0px; text-align: start; text-wrap-mode: nowrap;&quot;&gt;%3CmxGraphModel%3E%3Croot%3E%3CmxCell%20id%3D%220%22%2F%3E%3CmxCell%20id%3D%221%22%20parent%3D%220%22%2F%3E%3CmxCell%20id%3D%222%22%20value%3D%22WD%22%20style%3D%22text%3Bhtml%3D1%3Balign%3Dcenter%3BverticalAlign%3Dmiddle%3BwhiteSpace%3Dwrap%3Brounded%3D0%3B%22%20vertex%3D%221%22%20parent%3D%221%22%3E%3CmxGeometry%20x%3D%2240%22%20y%3D%22610%22%20width%3D%2260%22%20height%3D%2230%22%20as%3D%22geometry%22%2F%3E%3C%2FmxCell%3E%3C%2Froot%3E%3C%2FmxGraphModel%3E&lt;/span&gt;WE" style="text;html=1;align=center;verticalAlign=middle;whiteSpace=wrap;rounded=0;" parent="1" vertex="1">
          <mxGeometry x="5074" y="670" width="60" height="30" as="geometry" />
        </mxCell>
        <mxCell id="wcq1foTT7ZQvrPHVFRhE-24" style="edgeStyle=orthogonalEdgeStyle;rounded=0;orthogonalLoop=1;jettySize=auto;html=1;entryX=0;entryY=0.5;entryDx=0;entryDy=0;" parent="1" source="wcq1foTT7ZQvrPHVFRhE-25" target="wcq1foTT7ZQvrPHVFRhE-23" edge="1">
          <mxGeometry relative="1" as="geometry" />
        </mxCell>
        <mxCell id="wcq1foTT7ZQvrPHVFRhE-25" value="RF_&lt;span style=&quot;color: rgba(0, 0, 0, 0); font-family: monospace; font-size: 0px; text-align: start; text-wrap-mode: nowrap;&quot;&gt;%3CmxGraphModel%3E%3Croot%3E%3CmxCell%20id%3D%220%22%2F%3E%3CmxCell%20id%3D%221%22%20parent%3D%220%22%2F%3E%3CmxCell%20id%3D%222%22%20value%3D%22WD%22%20style%3D%22text%3Bhtml%3D1%3Balign%3Dcenter%3BverticalAlign%3Dmiddle%3BwhiteSpace%3Dwrap%3Brounded%3D0%3B%22%20vertex%3D%221%22%20parent%3D%221%22%3E%3CmxGeometry%20x%3D%2240%22%20y%3D%22610%22%20width%3D%2260%22%20height%3D%2230%22%20as%3D%22geometry%22%2F%3E%3C%2FmxCell%3E%3C%2Froot%3E%3C%2FmxGraphModel%3E&lt;/span&gt;WE" style="text;html=1;align=center;verticalAlign=middle;whiteSpace=wrap;rounded=0;" parent="1" vertex="1">
          <mxGeometry x="5064" y="550" width="60" height="30" as="geometry" />
        </mxCell>
        <mxCell id="wcq1foTT7ZQvrPHVFRhE-26" value="PC" style="rounded=0;whiteSpace=wrap;html=1;fontStyle=1;fontSize=15;" parent="1" vertex="1">
          <mxGeometry x="5034" y="1260" width="120" height="60" as="geometry" />
        </mxCell>
        <mxCell id="wcq1foTT7ZQvrPHVFRhE-27" value="&lt;font style=&quot;font-size: 26px;&quot;&gt;+&lt;/font&gt;" style="shape=step;perimeter=stepPerimeter;whiteSpace=wrap;html=1;fixedSize=1;rotation=-180;" parent="1" vertex="1">
          <mxGeometry x="5424" y="1370" width="60" height="70" as="geometry" />
        </mxCell>
        <mxCell id="wcq1foTT7ZQvrPHVFRhE-28" value="32&#39;d4" style="rounded=1;whiteSpace=wrap;html=1;" parent="1" vertex="1">
          <mxGeometry x="5545.98" y="1394" width="70" height="60" as="geometry" />
        </mxCell>
        <mxCell id="wcq1foTT7ZQvrPHVFRhE-29" value="addr" style="text;html=1;align=center;verticalAlign=middle;whiteSpace=wrap;rounded=0;" parent="1" vertex="1">
          <mxGeometry x="4584" y="1270" width="60" height="30" as="geometry" />
        </mxCell>
        <mxCell id="wcq1foTT7ZQvrPHVFRhE-30" style="edgeStyle=orthogonalEdgeStyle;rounded=0;orthogonalLoop=1;jettySize=auto;html=1;exitX=0;exitY=0.5;exitDx=0;exitDy=0;entryX=1;entryY=0.914;entryDx=0;entryDy=0;entryPerimeter=0;" parent="1" source="wcq1foTT7ZQvrPHVFRhE-26" target="wcq1foTT7ZQvrPHVFRhE-2" edge="1">
          <mxGeometry relative="1" as="geometry" />
        </mxCell>
        <mxCell id="wcq1foTT7ZQvrPHVFRhE-31" value="CPU" style="text;html=1;align=center;verticalAlign=middle;whiteSpace=wrap;rounded=0;fontStyle=1;fontSize=31;" parent="1" vertex="1">
          <mxGeometry x="5395.5" y="330" width="225" height="30" as="geometry" />
        </mxCell>
        <mxCell id="wcq1foTT7ZQvrPHVFRhE-32" value="instr_Code" style="text;html=1;align=center;verticalAlign=middle;whiteSpace=wrap;rounded=0;" parent="1" vertex="1">
          <mxGeometry x="4581" y="825" width="60" height="30" as="geometry" />
        </mxCell>
        <mxCell id="wcq1foTT7ZQvrPHVFRhE-33" style="edgeStyle=orthogonalEdgeStyle;rounded=0;orthogonalLoop=1;jettySize=auto;html=1;" parent="1" source="wcq1foTT7ZQvrPHVFRhE-37" edge="1">
          <mxGeometry relative="1" as="geometry">
            <mxPoint x="4844" y="840" as="targetPoint" />
            <Array as="points">
              <mxPoint x="4845" y="840" />
            </Array>
          </mxGeometry>
        </mxCell>
        <mxCell id="wcq1foTT7ZQvrPHVFRhE-34" value="" style="endArrow=classic;html=1;rounded=0;entryX=0;entryY=0.5;entryDx=0;entryDy=0;" parent="1" source="wcq1foTT7ZQvrPHVFRhE-42" target="wcq1foTT7ZQvrPHVFRhE-3" edge="1">
          <mxGeometry width="50" height="50" relative="1" as="geometry">
            <mxPoint x="4844" y="840" as="sourcePoint" />
            <mxPoint x="4894" y="790" as="targetPoint" />
          </mxGeometry>
        </mxCell>
        <mxCell id="wcq1foTT7ZQvrPHVFRhE-35" value="" style="edgeStyle=orthogonalEdgeStyle;rounded=0;orthogonalLoop=1;jettySize=auto;html=1;entryDx=0;entryDy=0;entryPerimeter=0;" parent="1" source="wcq1foTT7ZQvrPHVFRhE-32" target="wcq1foTT7ZQvrPHVFRhE-37" edge="1">
          <mxGeometry relative="1" as="geometry">
            <mxPoint x="4641" y="840" as="sourcePoint" />
            <mxPoint x="4845" y="841" as="targetPoint" />
          </mxGeometry>
        </mxCell>
        <mxCell id="wcq1foTT7ZQvrPHVFRhE-36" style="edgeStyle=orthogonalEdgeStyle;rounded=0;orthogonalLoop=1;jettySize=auto;html=1;entryX=0;entryY=0.5;entryDx=0;entryDy=0;" parent="1" source="wcq1foTT7ZQvrPHVFRhE-37" target="wcq1foTT7ZQvrPHVFRhE-21" edge="1">
          <mxGeometry relative="1" as="geometry">
            <Array as="points">
              <mxPoint x="4744" y="495" />
            </Array>
          </mxGeometry>
        </mxCell>
        <mxCell id="wcq1foTT7ZQvrPHVFRhE-37" value="" style="shape=waypoint;sketch=0;fillStyle=solid;size=6;pointerEvents=1;points=[];fillColor=none;resizable=0;rotatable=0;perimeter=centerPerimeter;snapToPoint=1;" parent="1" vertex="1">
          <mxGeometry x="4734" y="830" width="20" height="20" as="geometry" />
        </mxCell>
        <mxCell id="wcq1foTT7ZQvrPHVFRhE-38" value="R_ADDR1" style="text;html=1;align=center;verticalAlign=middle;whiteSpace=wrap;rounded=0;" parent="1" vertex="1">
          <mxGeometry x="5074" y="825" width="60" height="30" as="geometry" />
        </mxCell>
        <mxCell id="wcq1foTT7ZQvrPHVFRhE-39" value="R_ADDR2" style="text;html=1;align=center;verticalAlign=middle;whiteSpace=wrap;rounded=0;" parent="1" vertex="1">
          <mxGeometry x="5074" y="870" width="60" height="30" as="geometry" />
        </mxCell>
        <mxCell id="wcq1foTT7ZQvrPHVFRhE-40" value="" style="endArrow=classic;html=1;rounded=0;entryDx=0;entryDy=0;" parent="1" target="wcq1foTT7ZQvrPHVFRhE-42" edge="1">
          <mxGeometry width="50" height="50" relative="1" as="geometry">
            <mxPoint x="4844" y="840" as="sourcePoint" />
            <mxPoint x="5074" y="840" as="targetPoint" />
          </mxGeometry>
        </mxCell>
        <mxCell id="wcq1foTT7ZQvrPHVFRhE-41" style="edgeStyle=orthogonalEdgeStyle;rounded=0;orthogonalLoop=1;jettySize=auto;html=1;entryX=0;entryY=0.5;entryDx=0;entryDy=0;" parent="1" source="wcq1foTT7ZQvrPHVFRhE-46" target="wcq1foTT7ZQvrPHVFRhE-39" edge="1">
          <mxGeometry relative="1" as="geometry">
            <Array as="points">
              <mxPoint x="4964" y="885" />
            </Array>
          </mxGeometry>
        </mxCell>
        <mxCell id="wcq1foTT7ZQvrPHVFRhE-42" value="" style="shape=waypoint;sketch=0;fillStyle=solid;size=6;pointerEvents=1;points=[];fillColor=none;resizable=0;rotatable=0;perimeter=centerPerimeter;snapToPoint=1;" parent="1" vertex="1">
          <mxGeometry x="4954" y="830" width="20" height="20" as="geometry" />
        </mxCell>
        <mxCell id="wcq1foTT7ZQvrPHVFRhE-43" value="W_ADDR" style="text;html=1;align=center;verticalAlign=middle;whiteSpace=wrap;rounded=0;" parent="1" vertex="1">
          <mxGeometry x="5074" y="919.5" width="60" height="30" as="geometry" />
        </mxCell>
        <mxCell id="wcq1foTT7ZQvrPHVFRhE-44" value="" style="edgeStyle=orthogonalEdgeStyle;rounded=0;orthogonalLoop=1;jettySize=auto;html=1;entryDx=0;entryDy=0;" parent="1" source="wcq1foTT7ZQvrPHVFRhE-42" target="wcq1foTT7ZQvrPHVFRhE-46" edge="1">
          <mxGeometry relative="1" as="geometry">
            <mxPoint x="4964" y="840" as="sourcePoint" />
            <mxPoint x="5074" y="885" as="targetPoint" />
            <Array as="points" />
          </mxGeometry>
        </mxCell>
        <mxCell id="wcq1foTT7ZQvrPHVFRhE-45" style="edgeStyle=orthogonalEdgeStyle;rounded=0;orthogonalLoop=1;jettySize=auto;html=1;entryX=0;entryY=0.5;entryDx=0;entryDy=0;" parent="1" source="wcq1foTT7ZQvrPHVFRhE-50" target="wcq1foTT7ZQvrPHVFRhE-43" edge="1">
          <mxGeometry relative="1" as="geometry">
            <Array as="points">
              <mxPoint x="4964" y="934" />
            </Array>
          </mxGeometry>
        </mxCell>
        <mxCell id="wcq1foTT7ZQvrPHVFRhE-46" value="" style="shape=waypoint;sketch=0;fillStyle=solid;size=6;pointerEvents=1;points=[];fillColor=none;resizable=0;rotatable=0;perimeter=centerPerimeter;snapToPoint=1;" parent="1" vertex="1">
          <mxGeometry x="4954" y="870" width="20" height="20" as="geometry" />
        </mxCell>
        <mxCell id="wcq1foTT7ZQvrPHVFRhE-47" value="Imm_Extend" style="rounded=0;whiteSpace=wrap;html=1;" parent="1" vertex="1">
          <mxGeometry x="5094" y="1070" width="230" height="81" as="geometry" />
        </mxCell>
        <mxCell id="wcq1foTT7ZQvrPHVFRhE-48" value="" style="edgeStyle=orthogonalEdgeStyle;rounded=0;orthogonalLoop=1;jettySize=auto;html=1;entryDx=0;entryDy=0;" parent="1" source="wcq1foTT7ZQvrPHVFRhE-46" target="wcq1foTT7ZQvrPHVFRhE-50" edge="1">
          <mxGeometry relative="1" as="geometry">
            <Array as="points" />
            <mxPoint x="4964" y="880" as="sourcePoint" />
            <mxPoint x="5074" y="935" as="targetPoint" />
          </mxGeometry>
        </mxCell>
        <mxCell id="wcq1foTT7ZQvrPHVFRhE-49" style="edgeStyle=orthogonalEdgeStyle;rounded=0;orthogonalLoop=1;jettySize=auto;html=1;entryX=0;entryY=0.5;entryDx=0;entryDy=0;" parent="1" source="wcq1foTT7ZQvrPHVFRhE-50" target="wcq1foTT7ZQvrPHVFRhE-47" edge="1">
          <mxGeometry relative="1" as="geometry">
            <Array as="points">
              <mxPoint x="4964" y="1111" />
            </Array>
          </mxGeometry>
        </mxCell>
        <mxCell id="wcq1foTT7ZQvrPHVFRhE-50" value="" style="shape=waypoint;sketch=0;fillStyle=solid;size=6;pointerEvents=1;points=[];fillColor=none;resizable=0;rotatable=0;perimeter=centerPerimeter;snapToPoint=1;" parent="1" vertex="1">
          <mxGeometry x="4954" y="920" width="20" height="20" as="geometry" />
        </mxCell>
        <mxCell id="wcq1foTT7ZQvrPHVFRhE-51" style="edgeStyle=orthogonalEdgeStyle;rounded=0;orthogonalLoop=1;jettySize=auto;html=1;exitX=0.5;exitY=0;exitDx=0;exitDy=0;entryX=0;entryY=0.75;entryDx=0;entryDy=0;" parent="1" source="wcq1foTT7ZQvrPHVFRhE-52" target="wcq1foTT7ZQvrPHVFRhE-16" edge="1">
          <mxGeometry relative="1" as="geometry" />
        </mxCell>
        <mxCell id="wcq1foTT7ZQvrPHVFRhE-52" value="" style="shape=trapezoid;perimeter=trapezoidPerimeter;whiteSpace=wrap;html=1;fixedSize=1;rotation=90;" parent="1" vertex="1">
          <mxGeometry x="5391.5" y="920" width="170" height="60" as="geometry" />
        </mxCell>
        <mxCell id="wcq1foTT7ZQvrPHVFRhE-53" style="edgeStyle=orthogonalEdgeStyle;rounded=0;orthogonalLoop=1;jettySize=auto;html=1;exitDx=0;exitDy=0;entryX=0.299;entryY=1.009;entryDx=0;entryDy=0;entryPerimeter=0;" parent="1" source="wcq1foTT7ZQvrPHVFRhE-137" target="wcq1foTT7ZQvrPHVFRhE-52" edge="1">
          <mxGeometry relative="1" as="geometry" />
        </mxCell>
        <mxCell id="wcq1foTT7ZQvrPHVFRhE-54" style="edgeStyle=orthogonalEdgeStyle;rounded=0;orthogonalLoop=1;jettySize=auto;html=1;exitDx=0;exitDy=0;entryX=0.638;entryY=0.99;entryDx=0;entryDy=0;entryPerimeter=0;" parent="1" source="wcq1foTT7ZQvrPHVFRhE-63" target="wcq1foTT7ZQvrPHVFRhE-52" edge="1">
          <mxGeometry relative="1" as="geometry" />
        </mxCell>
        <mxCell id="wcq1foTT7ZQvrPHVFRhE-55" value="ALUSrcMux" style="text;html=1;align=center;verticalAlign=middle;whiteSpace=wrap;rounded=0;" parent="1" vertex="1">
          <mxGeometry x="5444" y="935" width="60" height="30" as="geometry" />
        </mxCell>
        <mxCell id="wcq1foTT7ZQvrPHVFRhE-56" style="edgeStyle=orthogonalEdgeStyle;rounded=0;orthogonalLoop=1;jettySize=auto;html=1;entryX=0;entryY=0.5;entryDx=0;entryDy=0;" parent="1" source="wcq1foTT7ZQvrPHVFRhE-57" target="wcq1foTT7ZQvrPHVFRhE-52" edge="1">
          <mxGeometry relative="1" as="geometry" />
        </mxCell>
        <mxCell id="wcq1foTT7ZQvrPHVFRhE-57" value="ALUSrcMuxSel" style="text;html=1;align=center;verticalAlign=middle;whiteSpace=wrap;rounded=0;" parent="1" vertex="1">
          <mxGeometry x="5419" y="550" width="110" height="30" as="geometry" />
        </mxCell>
        <mxCell id="wcq1foTT7ZQvrPHVFRhE-58" value="instr_Code" style="text;html=1;align=center;verticalAlign=middle;whiteSpace=wrap;rounded=0;" parent="1" vertex="1">
          <mxGeometry x="5096" y="1099" width="60" height="30" as="geometry" />
        </mxCell>
        <mxCell id="wcq1foTT7ZQvrPHVFRhE-59" style="edgeStyle=orthogonalEdgeStyle;rounded=0;orthogonalLoop=1;jettySize=auto;html=1;exitX=0.5;exitY=1;exitDx=0;exitDy=0;entryX=0.5;entryY=0;entryDx=0;entryDy=0;" parent="1" source="wcq1foTT7ZQvrPHVFRhE-60" target="wcq1foTT7ZQvrPHVFRhE-74" edge="1">
          <mxGeometry relative="1" as="geometry" />
        </mxCell>
        <mxCell id="wcq1foTT7ZQvrPHVFRhE-60" value="Comparator" style="rounded=0;whiteSpace=wrap;html=1;" parent="1" vertex="1">
          <mxGeometry x="5574" y="885" width="90" height="50" as="geometry" />
        </mxCell>
        <mxCell id="wcq1foTT7ZQvrPHVFRhE-61" style="edgeStyle=orthogonalEdgeStyle;rounded=0;orthogonalLoop=1;jettySize=auto;html=1;entryX=0.15;entryY=1.013;entryDx=0;entryDy=0;entryPerimeter=0;" parent="1" source="wcq1foTT7ZQvrPHVFRhE-28" edge="1">
          <mxGeometry relative="1" as="geometry">
            <mxPoint x="5474" y="1424" as="targetPoint" />
          </mxGeometry>
        </mxCell>
        <mxCell id="wcq1foTT7ZQvrPHVFRhE-62" value="" style="edgeStyle=orthogonalEdgeStyle;rounded=0;orthogonalLoop=1;jettySize=auto;html=1;exitX=1;exitY=0.5;exitDx=0;exitDy=0;entryDx=0;entryDy=0;entryPerimeter=0;" parent="1" source="wcq1foTT7ZQvrPHVFRhE-47" target="wcq1foTT7ZQvrPHVFRhE-63" edge="1">
          <mxGeometry relative="1" as="geometry">
            <mxPoint x="5324" y="1111" as="sourcePoint" />
            <mxPoint x="5447" y="973" as="targetPoint" />
          </mxGeometry>
        </mxCell>
        <mxCell id="wcq1foTT7ZQvrPHVFRhE-63" value="" style="shape=waypoint;sketch=0;fillStyle=solid;size=6;pointerEvents=1;points=[];fillColor=none;resizable=0;rotatable=0;perimeter=centerPerimeter;snapToPoint=1;" parent="1" vertex="1">
          <mxGeometry x="5384" y="1099" width="20" height="20" as="geometry" />
        </mxCell>
        <mxCell id="wcq1foTT7ZQvrPHVFRhE-64" value="&lt;font style=&quot;font-size: 26px;&quot;&gt;+&lt;/font&gt;" style="shape=step;perimeter=stepPerimeter;whiteSpace=wrap;html=1;fixedSize=1;rotation=-180;" parent="1" vertex="1">
          <mxGeometry x="5424" y="1240" width="60" height="70" as="geometry" />
        </mxCell>
        <mxCell id="wcq1foTT7ZQvrPHVFRhE-65" style="edgeStyle=orthogonalEdgeStyle;rounded=0;orthogonalLoop=1;jettySize=auto;html=1;entryX=0.167;entryY=0.757;entryDx=0;entryDy=0;entryPerimeter=0;" parent="1" source="wcq1foTT7ZQvrPHVFRhE-94" target="wcq1foTT7ZQvrPHVFRhE-64" edge="1">
          <mxGeometry relative="1" as="geometry">
            <Array as="points">
              <mxPoint x="5554" y="1109" />
              <mxPoint x="5554" y="1257" />
            </Array>
          </mxGeometry>
        </mxCell>
        <mxCell id="wcq1foTT7ZQvrPHVFRhE-66" style="edgeStyle=orthogonalEdgeStyle;rounded=0;orthogonalLoop=1;jettySize=auto;html=1;entryX=0.15;entryY=0.729;entryDx=0;entryDy=0;entryPerimeter=0;" parent="1" source="wcq1foTT7ZQvrPHVFRhE-68" target="wcq1foTT7ZQvrPHVFRhE-27" edge="1">
          <mxGeometry relative="1" as="geometry">
            <Array as="points">
              <mxPoint x="5694" y="1390" />
              <mxPoint x="5584" y="1390" />
            </Array>
          </mxGeometry>
        </mxCell>
        <mxCell id="wcq1foTT7ZQvrPHVFRhE-67" value="" style="edgeStyle=orthogonalEdgeStyle;rounded=0;orthogonalLoop=1;jettySize=auto;html=1;entryDx=0;entryDy=0;entryPerimeter=0;" parent="1" source="wcq1foTT7ZQvrPHVFRhE-26" target="wcq1foTT7ZQvrPHVFRhE-68" edge="1">
          <mxGeometry relative="1" as="geometry">
            <mxPoint x="5214" y="1320" as="sourcePoint" />
            <mxPoint x="5475" y="1389" as="targetPoint" />
            <Array as="points">
              <mxPoint x="5214" y="1530" />
              <mxPoint x="5694" y="1530" />
              <mxPoint x="5694" y="1389" />
            </Array>
          </mxGeometry>
        </mxCell>
        <mxCell id="wcq1foTT7ZQvrPHVFRhE-68" value="" style="shape=waypoint;sketch=0;fillStyle=solid;size=6;pointerEvents=1;points=[];fillColor=none;resizable=0;rotatable=0;perimeter=centerPerimeter;snapToPoint=1;" parent="1" vertex="1">
          <mxGeometry x="5684" y="1374" width="20" height="20" as="geometry" />
        </mxCell>
        <mxCell id="wcq1foTT7ZQvrPHVFRhE-69" value="" style="shape=trapezoid;perimeter=trapezoidPerimeter;whiteSpace=wrap;html=1;fixedSize=1;rotation=-90;" parent="1" vertex="1">
          <mxGeometry x="5234" y="1300" width="170" height="60" as="geometry" />
        </mxCell>
        <mxCell id="wcq1foTT7ZQvrPHVFRhE-70" style="edgeStyle=orthogonalEdgeStyle;rounded=0;orthogonalLoop=1;jettySize=auto;html=1;exitDx=0;exitDy=0;entryX=0.651;entryY=0.989;entryDx=0;entryDy=0;entryPerimeter=0;" parent="1" source="wcq1foTT7ZQvrPHVFRhE-97" target="wcq1foTT7ZQvrPHVFRhE-69" edge="1">
          <mxGeometry relative="1" as="geometry">
            <Array as="points">
              <mxPoint x="5374" y="1275" />
              <mxPoint x="5374" y="1304" />
            </Array>
          </mxGeometry>
        </mxCell>
        <mxCell id="wcq1foTT7ZQvrPHVFRhE-71" style="edgeStyle=orthogonalEdgeStyle;rounded=0;orthogonalLoop=1;jettySize=auto;html=1;entryX=0.367;entryY=1;entryDx=0;entryDy=0;entryPerimeter=0;" parent="1" source="wcq1foTT7ZQvrPHVFRhE-100" target="wcq1foTT7ZQvrPHVFRhE-69" edge="1">
          <mxGeometry relative="1" as="geometry">
            <Array as="points">
              <mxPoint x="5369" y="1400" />
              <mxPoint x="5369" y="1353" />
            </Array>
          </mxGeometry>
        </mxCell>
        <mxCell id="wcq1foTT7ZQvrPHVFRhE-72" style="edgeStyle=orthogonalEdgeStyle;rounded=0;orthogonalLoop=1;jettySize=auto;html=1;exitX=0;exitY=0.5;exitDx=0;exitDy=0;entryX=1;entryY=0.5;entryDx=0;entryDy=0;" parent="1" source="wcq1foTT7ZQvrPHVFRhE-73" target="wcq1foTT7ZQvrPHVFRhE-26" edge="1">
          <mxGeometry relative="1" as="geometry" />
        </mxCell>
        <mxCell id="wcq1foTT7ZQvrPHVFRhE-73" value="PCSrcMux" style="text;html=1;align=center;verticalAlign=middle;whiteSpace=wrap;rounded=0;" parent="1" vertex="1">
          <mxGeometry x="5289" y="1320" width="60" height="30" as="geometry" />
        </mxCell>
        <mxCell id="wcq1foTT7ZQvrPHVFRhE-74" value="btaken" style="rounded=1;whiteSpace=wrap;html=1;" parent="1" vertex="1">
          <mxGeometry x="5579" y="990" width="80" height="40" as="geometry" />
        </mxCell>
        <mxCell id="wcq1foTT7ZQvrPHVFRhE-75" style="edgeStyle=orthogonalEdgeStyle;rounded=0;orthogonalLoop=1;jettySize=auto;html=1;exitX=0.5;exitY=1;exitDx=0;exitDy=0;entryX=0.5;entryY=0;entryDx=0;entryDy=0;" parent="1" source="wcq1foTT7ZQvrPHVFRhE-76" target="wcq1foTT7ZQvrPHVFRhE-77" edge="1">
          <mxGeometry relative="1" as="geometry" />
        </mxCell>
        <mxCell id="wcq1foTT7ZQvrPHVFRhE-76" value="branch" style="text;html=1;align=center;verticalAlign=middle;whiteSpace=wrap;rounded=0;" parent="1" vertex="1">
          <mxGeometry x="5694" y="550" width="110" height="30" as="geometry" />
        </mxCell>
        <mxCell id="wcq1foTT7ZQvrPHVFRhE-77" value="branch" style="rounded=1;whiteSpace=wrap;html=1;" parent="1" vertex="1">
          <mxGeometry x="5704" y="600" width="80" height="40" as="geometry" />
        </mxCell>
        <mxCell id="wcq1foTT7ZQvrPHVFRhE-78" value="branch" style="rounded=1;whiteSpace=wrap;html=1;" parent="1" vertex="1">
          <mxGeometry x="5679.98" y="1560" width="80" height="40" as="geometry" />
        </mxCell>
        <mxCell id="wcq1foTT7ZQvrPHVFRhE-79" value="btaken" style="rounded=1;whiteSpace=wrap;html=1;" parent="1" vertex="1">
          <mxGeometry x="5679.98" y="1620" width="80" height="40" as="geometry" />
        </mxCell>
        <mxCell id="wcq1foTT7ZQvrPHVFRhE-80" value="" style="verticalLabelPosition=bottom;shadow=0;dashed=0;align=center;html=1;verticalAlign=top;shape=mxgraph.electrical.logic_gates.logic_gate;operation=and;rotation=-180;" parent="1" vertex="1">
          <mxGeometry x="5518" y="1580" width="100" height="60" as="geometry" />
        </mxCell>
        <mxCell id="wcq1foTT7ZQvrPHVFRhE-81" style="edgeStyle=orthogonalEdgeStyle;rounded=0;orthogonalLoop=1;jettySize=auto;html=1;entryX=0;entryY=0.75;entryDx=0;entryDy=0;entryPerimeter=0;" parent="1" source="wcq1foTT7ZQvrPHVFRhE-78" target="wcq1foTT7ZQvrPHVFRhE-80" edge="1">
          <mxGeometry relative="1" as="geometry" />
        </mxCell>
        <mxCell id="wcq1foTT7ZQvrPHVFRhE-82" style="edgeStyle=orthogonalEdgeStyle;rounded=0;orthogonalLoop=1;jettySize=auto;html=1;entryX=0;entryY=0.25;entryDx=0;entryDy=0;entryPerimeter=0;" parent="1" source="wcq1foTT7ZQvrPHVFRhE-79" target="wcq1foTT7ZQvrPHVFRhE-80" edge="1">
          <mxGeometry relative="1" as="geometry" />
        </mxCell>
        <mxCell id="wcq1foTT7ZQvrPHVFRhE-83" style="edgeStyle=orthogonalEdgeStyle;rounded=0;orthogonalLoop=1;jettySize=auto;html=1;entryX=0.5;entryY=0;entryDx=0;entryDy=0;" parent="1" source="wcq1foTT7ZQvrPHVFRhE-84" target="wcq1foTT7ZQvrPHVFRhE-16" edge="1">
          <mxGeometry relative="1" as="geometry" />
        </mxCell>
        <mxCell id="wcq1foTT7ZQvrPHVFRhE-84" value="ALUControl" style="text;html=1;align=center;verticalAlign=middle;whiteSpace=wrap;rounded=0;" parent="1" vertex="1">
          <mxGeometry x="5569" y="550" width="110" height="30" as="geometry" />
        </mxCell>
        <mxCell id="wcq1foTT7ZQvrPHVFRhE-85" value="&lt;b&gt;&lt;font style=&quot;font-size: 50px;&quot;&gt;STORE&lt;/font&gt;&lt;/b&gt;" style="text;html=1;align=center;verticalAlign=middle;whiteSpace=wrap;rounded=0;" parent="1" vertex="1">
          <mxGeometry x="4407" y="290" width="247" height="170" as="geometry" />
        </mxCell>
        <mxCell id="wcq1foTT7ZQvrPHVFRhE-86" style="edgeStyle=orthogonalEdgeStyle;rounded=0;orthogonalLoop=1;jettySize=auto;html=1;entryX=0;entryY=0.5;entryDx=0;entryDy=0;" parent="1" source="wcq1foTT7ZQvrPHVFRhE-87" target="wcq1foTT7ZQvrPHVFRhE-22" edge="1">
          <mxGeometry relative="1" as="geometry">
            <Array as="points">
              <mxPoint x="5604" y="1099" />
              <mxPoint x="5604" y="1190" />
              <mxPoint x="4894" y="1190" />
              <mxPoint x="4894" y="975" />
            </Array>
          </mxGeometry>
        </mxCell>
        <mxCell id="wcq1foTT7ZQvrPHVFRhE-87" value="" style="shape=trapezoid;perimeter=trapezoidPerimeter;whiteSpace=wrap;html=1;fixedSize=1;rotation=-90;fillColor=#ffe6cc;strokeColor=#d79b00;" parent="1" vertex="1">
          <mxGeometry x="5634" y="1069" width="230" height="60" as="geometry" />
        </mxCell>
        <mxCell id="wcq1foTT7ZQvrPHVFRhE-88" value="0" style="text;html=1;align=center;verticalAlign=middle;whiteSpace=wrap;rounded=0;" parent="1" vertex="1">
          <mxGeometry x="5719" y="1016.25" width="60" height="30" as="geometry" />
        </mxCell>
        <mxCell id="wcq1foTT7ZQvrPHVFRhE-89" value="1" style="text;html=1;align=center;verticalAlign=middle;whiteSpace=wrap;rounded=0;" parent="1" vertex="1">
          <mxGeometry x="5719" y="1055.25" width="60" height="30" as="geometry" />
        </mxCell>
        <mxCell id="wcq1foTT7ZQvrPHVFRhE-90" value="2" style="text;html=1;align=center;verticalAlign=middle;whiteSpace=wrap;rounded=0;" parent="1" vertex="1">
          <mxGeometry x="5719" y="1095.25" width="60" height="30" as="geometry" />
        </mxCell>
        <mxCell id="wcq1foTT7ZQvrPHVFRhE-91" value="3" style="text;html=1;align=center;verticalAlign=middle;whiteSpace=wrap;rounded=0;" parent="1" vertex="1">
          <mxGeometry x="5719" y="1135.25" width="60" height="30" as="geometry" />
        </mxCell>
        <mxCell id="wcq1foTT7ZQvrPHVFRhE-92" value="" style="edgeStyle=orthogonalEdgeStyle;rounded=0;orthogonalLoop=1;jettySize=auto;html=1;entryDx=0;entryDy=0;entryPerimeter=0;" parent="1" source="wcq1foTT7ZQvrPHVFRhE-63" target="wcq1foTT7ZQvrPHVFRhE-94" edge="1">
          <mxGeometry relative="1" as="geometry">
            <Array as="points" />
            <mxPoint x="5394" y="1109" as="sourcePoint" />
            <mxPoint x="5474" y="1257" as="targetPoint" />
          </mxGeometry>
        </mxCell>
        <mxCell id="wcq1foTT7ZQvrPHVFRhE-93" style="edgeStyle=orthogonalEdgeStyle;rounded=0;orthogonalLoop=1;jettySize=auto;html=1;entryX=1;entryY=0.5;entryDx=0;entryDy=0;" parent="1" source="wcq1foTT7ZQvrPHVFRhE-94" target="wcq1foTT7ZQvrPHVFRhE-90" edge="1">
          <mxGeometry relative="1" as="geometry">
            <Array as="points">
              <mxPoint x="5664" y="1110" />
              <mxPoint x="5664" y="1340" />
              <mxPoint x="5864" y="1340" />
              <mxPoint x="5864" y="1110" />
            </Array>
          </mxGeometry>
        </mxCell>
        <mxCell id="wcq1foTT7ZQvrPHVFRhE-94" value="" style="shape=waypoint;sketch=0;fillStyle=solid;size=6;pointerEvents=1;points=[];fillColor=none;resizable=0;rotatable=0;perimeter=centerPerimeter;snapToPoint=1;" parent="1" vertex="1">
          <mxGeometry x="5544" y="1099" width="20" height="20" as="geometry" />
        </mxCell>
        <mxCell id="wcq1foTT7ZQvrPHVFRhE-95" value="" style="edgeStyle=orthogonalEdgeStyle;rounded=0;orthogonalLoop=1;jettySize=auto;html=1;exitX=1;exitY=0.5;exitDx=0;exitDy=0;entryDx=0;entryDy=0;entryPerimeter=0;" parent="1" source="wcq1foTT7ZQvrPHVFRhE-64" target="wcq1foTT7ZQvrPHVFRhE-97" edge="1">
          <mxGeometry relative="1" as="geometry">
            <mxPoint x="5424" y="1275" as="sourcePoint" />
            <mxPoint x="5348" y="1304" as="targetPoint" />
          </mxGeometry>
        </mxCell>
        <mxCell id="wcq1foTT7ZQvrPHVFRhE-96" style="edgeStyle=orthogonalEdgeStyle;rounded=0;orthogonalLoop=1;jettySize=auto;html=1;entryX=1;entryY=0.5;entryDx=0;entryDy=0;" parent="1" source="wcq1foTT7ZQvrPHVFRhE-97" target="wcq1foTT7ZQvrPHVFRhE-91" edge="1">
          <mxGeometry relative="1" as="geometry">
            <Array as="points">
              <mxPoint x="5392" y="1230" />
              <mxPoint x="5944" y="1230" />
              <mxPoint x="5944" y="1150" />
            </Array>
          </mxGeometry>
        </mxCell>
        <mxCell id="wcq1foTT7ZQvrPHVFRhE-97" value="" style="shape=waypoint;sketch=0;fillStyle=solid;size=6;pointerEvents=1;points=[];fillColor=none;resizable=0;rotatable=0;perimeter=centerPerimeter;snapToPoint=1;" parent="1" vertex="1">
          <mxGeometry x="5382" y="1265" width="20" height="20" as="geometry" />
        </mxCell>
        <mxCell id="wcq1foTT7ZQvrPHVFRhE-98" value="" style="edgeStyle=orthogonalEdgeStyle;rounded=0;orthogonalLoop=1;jettySize=auto;html=1;entryDx=0;entryDy=0;entryPerimeter=0;" parent="1" source="wcq1foTT7ZQvrPHVFRhE-27" target="wcq1foTT7ZQvrPHVFRhE-100" edge="1">
          <mxGeometry relative="1" as="geometry">
            <mxPoint x="5424" y="1405" as="sourcePoint" />
            <mxPoint x="5349" y="1353" as="targetPoint" />
          </mxGeometry>
        </mxCell>
        <mxCell id="wcq1foTT7ZQvrPHVFRhE-99" style="edgeStyle=orthogonalEdgeStyle;rounded=0;orthogonalLoop=1;jettySize=auto;html=1;entryX=1;entryY=0.25;entryDx=0;entryDy=0;" parent="1" source="wcq1foTT7ZQvrPHVFRhE-100" target="wcq1foTT7ZQvrPHVFRhE-130" edge="1">
          <mxGeometry relative="1" as="geometry">
            <Array as="points">
              <mxPoint x="5384" y="1340" />
              <mxPoint x="6014" y="1340" />
              <mxPoint x="6014" y="1179" />
            </Array>
          </mxGeometry>
        </mxCell>
        <mxCell id="wcq1foTT7ZQvrPHVFRhE-100" value="" style="shape=waypoint;sketch=0;fillStyle=solid;size=6;pointerEvents=1;points=[];fillColor=none;resizable=0;rotatable=0;perimeter=centerPerimeter;snapToPoint=1;" parent="1" vertex="1">
          <mxGeometry x="5374" y="1390" width="20" height="20" as="geometry" />
        </mxCell>
        <mxCell id="wcq1foTT7ZQvrPHVFRhE-101" value="LU" style="text;html=1;align=center;verticalAlign=middle;whiteSpace=wrap;rounded=0;fontStyle=1;" parent="1" vertex="1">
          <mxGeometry x="5854" y="1089" width="60" height="30" as="geometry" />
        </mxCell>
        <mxCell id="wcq1foTT7ZQvrPHVFRhE-102" value="AU" style="text;html=1;align=center;verticalAlign=middle;whiteSpace=wrap;rounded=0;fontStyle=1;" parent="1" vertex="1">
          <mxGeometry x="5922" y="1129" width="60" height="30" as="geometry" />
        </mxCell>
        <mxCell id="wcq1foTT7ZQvrPHVFRhE-103" value="J/JL" style="text;html=1;align=center;verticalAlign=middle;whiteSpace=wrap;rounded=0;fontStyle=1;" parent="1" vertex="1">
          <mxGeometry x="5999" y="1159" width="60" height="30" as="geometry" />
        </mxCell>
        <mxCell id="wcq1foTT7ZQvrPHVFRhE-104" style="edgeStyle=orthogonalEdgeStyle;rounded=0;orthogonalLoop=1;jettySize=auto;html=1;entryX=1;entryY=0.5;entryDx=0;entryDy=0;" parent="1" source="wcq1foTT7ZQvrPHVFRhE-105" target="wcq1foTT7ZQvrPHVFRhE-87" edge="1">
          <mxGeometry relative="1" as="geometry">
            <Array as="points">
              <mxPoint x="5899" y="750" />
              <mxPoint x="5749" y="750" />
            </Array>
          </mxGeometry>
        </mxCell>
        <mxCell id="wcq1foTT7ZQvrPHVFRhE-105" value="RFSrcMuxSel[2:0]" style="text;html=1;align=center;verticalAlign=middle;whiteSpace=wrap;rounded=0;" parent="1" vertex="1">
          <mxGeometry x="5844" y="550" width="110" height="30" as="geometry" />
        </mxCell>
        <mxCell id="wcq1foTT7ZQvrPHVFRhE-106" value="R/I" style="text;html=1;align=center;verticalAlign=middle;whiteSpace=wrap;rounded=0;fontStyle=1;" parent="1" vertex="1">
          <mxGeometry x="5804" y="1010" width="60" height="30" as="geometry" />
        </mxCell>
        <mxCell id="wcq1foTT7ZQvrPHVFRhE-107" style="edgeStyle=orthogonalEdgeStyle;rounded=0;orthogonalLoop=1;jettySize=auto;html=1;exitX=1;exitY=0.5;exitDx=0;exitDy=0;exitPerimeter=0;entryX=0;entryY=0.5;entryDx=0;entryDy=0;" parent="1" source="wcq1foTT7ZQvrPHVFRhE-108" target="wcq1foTT7ZQvrPHVFRhE-69" edge="1">
          <mxGeometry relative="1" as="geometry" />
        </mxCell>
        <mxCell id="wcq1foTT7ZQvrPHVFRhE-108" value="" style="verticalLabelPosition=bottom;shadow=0;dashed=0;align=center;html=1;verticalAlign=top;shape=mxgraph.electrical.logic_gates.logic_gate;operation=or;rotation=-180;" parent="1" vertex="1">
          <mxGeometry x="5372" y="1596.5" width="100" height="60" as="geometry" />
        </mxCell>
        <mxCell id="wcq1foTT7ZQvrPHVFRhE-109" style="edgeStyle=orthogonalEdgeStyle;rounded=0;orthogonalLoop=1;jettySize=auto;html=1;entryX=0;entryY=0.75;entryDx=0;entryDy=0;entryPerimeter=0;" parent="1" source="wcq1foTT7ZQvrPHVFRhE-80" target="wcq1foTT7ZQvrPHVFRhE-108" edge="1">
          <mxGeometry relative="1" as="geometry" />
        </mxCell>
        <mxCell id="wcq1foTT7ZQvrPHVFRhE-110" value="jal" style="rounded=1;whiteSpace=wrap;html=1;" parent="1" vertex="1">
          <mxGeometry x="5557" y="1682.5" width="80" height="40" as="geometry" />
        </mxCell>
        <mxCell id="wcq1foTT7ZQvrPHVFRhE-111" style="edgeStyle=orthogonalEdgeStyle;rounded=0;orthogonalLoop=1;jettySize=auto;html=1;entryX=0;entryY=0.25;entryDx=0;entryDy=0;entryPerimeter=0;" parent="1" source="wcq1foTT7ZQvrPHVFRhE-110" target="wcq1foTT7ZQvrPHVFRhE-108" edge="1">
          <mxGeometry relative="1" as="geometry" />
        </mxCell>
        <mxCell id="wcq1foTT7ZQvrPHVFRhE-112" value="jal" style="rounded=1;whiteSpace=wrap;html=1;" parent="1" vertex="1">
          <mxGeometry x="5982" y="605.5" width="80" height="40" as="geometry" />
        </mxCell>
        <mxCell id="wcq1foTT7ZQvrPHVFRhE-113" style="edgeStyle=orthogonalEdgeStyle;rounded=0;orthogonalLoop=1;jettySize=auto;html=1;exitX=0.5;exitY=1;exitDx=0;exitDy=0;entryX=0.5;entryY=0;entryDx=0;entryDy=0;" parent="1" source="wcq1foTT7ZQvrPHVFRhE-114" target="wcq1foTT7ZQvrPHVFRhE-112" edge="1">
          <mxGeometry relative="1" as="geometry" />
        </mxCell>
        <mxCell id="wcq1foTT7ZQvrPHVFRhE-114" value="jal" style="text;html=1;align=center;verticalAlign=middle;whiteSpace=wrap;rounded=0;" parent="1" vertex="1">
          <mxGeometry x="5982" y="545.5" width="77" height="30" as="geometry" />
        </mxCell>
        <mxCell id="wcq1foTT7ZQvrPHVFRhE-115" style="edgeStyle=orthogonalEdgeStyle;rounded=0;orthogonalLoop=1;jettySize=auto;html=1;entryX=0;entryY=0.25;entryDx=0;entryDy=0;" parent="1" source="wcq1foTT7ZQvrPHVFRhE-116" target="wcq1foTT7ZQvrPHVFRhE-64" edge="1">
          <mxGeometry relative="1" as="geometry" />
        </mxCell>
        <mxCell id="wcq1foTT7ZQvrPHVFRhE-116" value="" style="shape=trapezoid;perimeter=trapezoidPerimeter;whiteSpace=wrap;html=1;fixedSize=1;rotation=-90;" parent="1" vertex="1">
          <mxGeometry x="5511" y="1286.5" width="73.75" height="29" as="geometry" />
        </mxCell>
        <mxCell id="wcq1foTT7ZQvrPHVFRhE-117" style="edgeStyle=orthogonalEdgeStyle;rounded=0;orthogonalLoop=1;jettySize=auto;html=1;entryX=0.358;entryY=1.022;entryDx=0;entryDy=0;entryPerimeter=0;exitX=0.5;exitY=0.775;exitDx=0;exitDy=0;exitPerimeter=0;" parent="1" source="wcq1foTT7ZQvrPHVFRhE-68" target="wcq1foTT7ZQvrPHVFRhE-116" edge="1">
          <mxGeometry relative="1" as="geometry">
            <Array as="points">
              <mxPoint x="5694" y="1390.5" />
              <mxPoint x="5623" y="1390.5" />
              <mxPoint x="5623" y="1311.5" />
            </Array>
          </mxGeometry>
        </mxCell>
        <mxCell id="wcq1foTT7ZQvrPHVFRhE-118" value="" style="endArrow=classic;html=1;rounded=0;entryDx=0;entryDy=0;entryPerimeter=0;" parent="1" target="wcq1foTT7ZQvrPHVFRhE-120" edge="1">
          <mxGeometry width="50" height="50" relative="1" as="geometry">
            <mxPoint x="5354" y="790" as="sourcePoint" />
            <mxPoint x="5574" y="789.5" as="targetPoint" />
          </mxGeometry>
        </mxCell>
        <mxCell id="wcq1foTT7ZQvrPHVFRhE-119" style="edgeStyle=orthogonalEdgeStyle;rounded=0;orthogonalLoop=1;jettySize=auto;html=1;entryX=0.75;entryY=1;entryDx=0;entryDy=0;" parent="1" source="wcq1foTT7ZQvrPHVFRhE-120" target="wcq1foTT7ZQvrPHVFRhE-116" edge="1">
          <mxGeometry relative="1" as="geometry">
            <Array as="points">
              <mxPoint x="5390" y="790.5" />
              <mxPoint x="5390" y="1085.5" />
              <mxPoint x="5580" y="1085.5" />
              <mxPoint x="5580" y="1282.5" />
            </Array>
          </mxGeometry>
        </mxCell>
        <mxCell id="wcq1foTT7ZQvrPHVFRhE-120" value="" style="shape=waypoint;sketch=0;fillStyle=solid;size=6;pointerEvents=1;points=[];fillColor=none;resizable=0;rotatable=0;perimeter=centerPerimeter;snapToPoint=1;" parent="1" vertex="1">
          <mxGeometry x="5384" y="780" width="20" height="20" as="geometry" />
        </mxCell>
        <mxCell id="wcq1foTT7ZQvrPHVFRhE-121" value="jalr" style="rounded=1;whiteSpace=wrap;html=1;" parent="1" vertex="1">
          <mxGeometry x="6105" y="605.5" width="80" height="40" as="geometry" />
        </mxCell>
        <mxCell id="wcq1foTT7ZQvrPHVFRhE-122" style="edgeStyle=orthogonalEdgeStyle;rounded=0;orthogonalLoop=1;jettySize=auto;html=1;entryX=0.5;entryY=0;entryDx=0;entryDy=0;" parent="1" source="wcq1foTT7ZQvrPHVFRhE-123" target="wcq1foTT7ZQvrPHVFRhE-121" edge="1">
          <mxGeometry relative="1" as="geometry" />
        </mxCell>
        <mxCell id="wcq1foTT7ZQvrPHVFRhE-123" value="jalr" style="text;html=1;align=center;verticalAlign=middle;whiteSpace=wrap;rounded=0;" parent="1" vertex="1">
          <mxGeometry x="6105" y="545.5" width="77" height="30" as="geometry" />
        </mxCell>
        <mxCell id="wcq1foTT7ZQvrPHVFRhE-124" style="edgeStyle=orthogonalEdgeStyle;rounded=0;orthogonalLoop=1;jettySize=auto;html=1;entryX=1;entryY=0.25;entryDx=0;entryDy=0;" parent="1" source="wcq1foTT7ZQvrPHVFRhE-125" target="wcq1foTT7ZQvrPHVFRhE-116" edge="1">
          <mxGeometry relative="1" as="geometry">
            <Array as="points">
              <mxPoint x="5508" y="1203.5" />
              <mxPoint x="5543" y="1203.5" />
            </Array>
          </mxGeometry>
        </mxCell>
        <mxCell id="wcq1foTT7ZQvrPHVFRhE-125" value="jalr" style="rounded=1;whiteSpace=wrap;html=1;" parent="1" vertex="1">
          <mxGeometry x="5477" y="1145" width="62" height="27" as="geometry" />
        </mxCell>
        <mxCell id="wcq1foTT7ZQvrPHVFRhE-126" value="RAM&lt;div&gt;(DATA Mem)&lt;/div&gt;" style="rounded=0;whiteSpace=wrap;html=1;fontStyle=1;fontSize=31;" parent="1" vertex="1">
          <mxGeometry x="6844" y="589.5" width="360" height="900" as="geometry" />
        </mxCell>
        <mxCell id="wcq1foTT7ZQvrPHVFRhE-127" style="edgeStyle=orthogonalEdgeStyle;rounded=0;orthogonalLoop=1;jettySize=auto;html=1;entryX=0;entryY=0.5;entryDx=0;entryDy=0;" parent="1" source="wcq1foTT7ZQvrPHVFRhE-128" target="wcq1foTT7ZQvrPHVFRhE-129" edge="1">
          <mxGeometry relative="1" as="geometry" />
        </mxCell>
        <mxCell id="wcq1foTT7ZQvrPHVFRhE-128" value="WE" style="text;html=1;align=center;verticalAlign=middle;whiteSpace=wrap;rounded=0;" parent="1" vertex="1">
          <mxGeometry x="6517" y="545.5" width="77" height="30" as="geometry" />
        </mxCell>
        <mxCell id="wcq1foTT7ZQvrPHVFRhE-129" value="WE" style="text;html=1;align=center;verticalAlign=middle;whiteSpace=wrap;rounded=0;" parent="1" vertex="1">
          <mxGeometry x="6844" y="610" width="77" height="30" as="geometry" />
        </mxCell>
        <mxCell id="wcq1foTT7ZQvrPHVFRhE-130" value="4" style="text;html=1;align=center;verticalAlign=middle;whiteSpace=wrap;rounded=0;" parent="1" vertex="1">
          <mxGeometry x="5719" y="1171.75" width="60" height="30" as="geometry" />
        </mxCell>
        <mxCell id="wcq1foTT7ZQvrPHVFRhE-131" value="R_DATA" style="text;html=1;align=center;verticalAlign=middle;whiteSpace=wrap;rounded=0;" parent="1" vertex="1">
          <mxGeometry x="6844" y="1055.25" width="77" height="30" as="geometry" />
        </mxCell>
        <mxCell id="wcq1foTT7ZQvrPHVFRhE-132" value="" style="edgeStyle=orthogonalEdgeStyle;rounded=0;orthogonalLoop=1;jettySize=auto;html=1;exitX=1;exitY=0.5;exitDx=0;exitDy=0;entryDx=0;entryDy=0;" parent="1" source="wcq1foTT7ZQvrPHVFRhE-16" target="wcq1foTT7ZQvrPHVFRhE-133" edge="1">
          <mxGeometry relative="1" as="geometry">
            <mxPoint x="5684" y="840" as="sourcePoint" />
            <mxPoint x="5779" y="1031" as="targetPoint" />
          </mxGeometry>
        </mxCell>
        <mxCell id="wcq1foTT7ZQvrPHVFRhE-133" value="" style="shape=waypoint;sketch=0;fillStyle=solid;size=6;pointerEvents=1;points=[];fillColor=none;resizable=0;rotatable=0;perimeter=centerPerimeter;snapToPoint=1;" parent="1" vertex="1">
          <mxGeometry x="5784" y="830" width="20" height="20" as="geometry" />
        </mxCell>
        <mxCell id="wcq1foTT7ZQvrPHVFRhE-134" style="edgeStyle=orthogonalEdgeStyle;rounded=0;orthogonalLoop=1;jettySize=auto;html=1;entryX=0;entryY=0.278;entryDx=0;entryDy=0;entryPerimeter=0;" parent="1" source="wcq1foTT7ZQvrPHVFRhE-145" target="wcq1foTT7ZQvrPHVFRhE-126" edge="1">
          <mxGeometry relative="1" as="geometry" />
        </mxCell>
        <mxCell id="wcq1foTT7ZQvrPHVFRhE-135" value="ADDR" style="text;html=1;align=center;verticalAlign=middle;whiteSpace=wrap;rounded=0;" parent="1" vertex="1">
          <mxGeometry x="6844" y="825" width="77" height="30" as="geometry" />
        </mxCell>
        <mxCell id="wcq1foTT7ZQvrPHVFRhE-136" value="" style="edgeStyle=orthogonalEdgeStyle;rounded=0;orthogonalLoop=1;jettySize=auto;html=1;exitX=1;exitY=0.5;exitDx=0;exitDy=0;entryDx=0;entryDy=0;entryPerimeter=0;" parent="1" source="wcq1foTT7ZQvrPHVFRhE-19" target="wcq1foTT7ZQvrPHVFRhE-137" edge="1">
          <mxGeometry relative="1" as="geometry">
            <mxPoint x="5354" y="915" as="sourcePoint" />
            <mxPoint x="5446" y="916" as="targetPoint" />
          </mxGeometry>
        </mxCell>
        <mxCell id="wcq1foTT7ZQvrPHVFRhE-150" style="edgeStyle=orthogonalEdgeStyle;rounded=0;orthogonalLoop=1;jettySize=auto;html=1;entryX=0;entryY=0.5;entryDx=0;entryDy=0;" parent="1" source="wcq1foTT7ZQvrPHVFRhE-137" target="wcq1foTT7ZQvrPHVFRhE-149" edge="1">
          <mxGeometry relative="1" as="geometry">
            <Array as="points">
              <mxPoint x="5404" y="1506" />
              <mxPoint x="5824" y="1506" />
              <mxPoint x="5824" y="1393" />
              <mxPoint x="6141" y="1393" />
              <mxPoint x="6141" y="1355" />
            </Array>
          </mxGeometry>
        </mxCell>
        <mxCell id="wcq1foTT7ZQvrPHVFRhE-137" value="" style="shape=waypoint;sketch=0;fillStyle=solid;size=6;pointerEvents=1;points=[];fillColor=none;resizable=0;rotatable=0;perimeter=centerPerimeter;snapToPoint=1;" parent="1" vertex="1">
          <mxGeometry x="5394" y="905" width="20" height="20" as="geometry" />
        </mxCell>
        <mxCell id="wcq1foTT7ZQvrPHVFRhE-139" value="W_DATA" style="text;html=1;align=center;verticalAlign=middle;whiteSpace=wrap;rounded=0;" parent="1" vertex="1">
          <mxGeometry x="6844" y="1135.25" width="77" height="30" as="geometry" />
        </mxCell>
        <mxCell id="wcq1foTT7ZQvrPHVFRhE-140" style="edgeStyle=orthogonalEdgeStyle;rounded=0;orthogonalLoop=1;jettySize=auto;html=1;entryX=1;entryY=0.5;entryDx=0;entryDy=0;" parent="1" source="wcq1foTT7ZQvrPHVFRhE-141" target="wcq1foTT7ZQvrPHVFRhE-89" edge="1">
          <mxGeometry relative="1" as="geometry" />
        </mxCell>
        <mxCell id="wcq1foTT7ZQvrPHVFRhE-141" value="&lt;b&gt;&lt;font style=&quot;font-size: 16px;&quot;&gt;LOAD_VAL_DECISION&lt;/font&gt;&lt;/b&gt;" style="rounded=0;whiteSpace=wrap;html=1;fillColor=#ffe6cc;strokeColor=#d79b00;" parent="1" vertex="1">
          <mxGeometry x="6424" y="1022.75" width="200" height="110" as="geometry" />
        </mxCell>
        <mxCell id="wcq1foTT7ZQvrPHVFRhE-142" style="edgeStyle=orthogonalEdgeStyle;rounded=0;orthogonalLoop=1;jettySize=auto;html=1;entryX=0.997;entryY=0.432;entryDx=0;entryDy=0;entryPerimeter=0;" parent="1" source="wcq1foTT7ZQvrPHVFRhE-158" target="wcq1foTT7ZQvrPHVFRhE-141" edge="1">
          <mxGeometry relative="1" as="geometry" />
        </mxCell>
        <mxCell id="wcq1foTT7ZQvrPHVFRhE-143" value="" style="edgeStyle=orthogonalEdgeStyle;rounded=0;orthogonalLoop=1;jettySize=auto;html=1;entryDx=0;entryDy=0;entryPerimeter=0;" parent="1" source="wcq1foTT7ZQvrPHVFRhE-155" target="wcq1foTT7ZQvrPHVFRhE-145" edge="1">
          <mxGeometry relative="1" as="geometry">
            <mxPoint x="5794" y="840" as="sourcePoint" />
            <mxPoint x="6844" y="840" as="targetPoint" />
          </mxGeometry>
        </mxCell>
        <mxCell id="wcq1foTT7ZQvrPHVFRhE-144" style="edgeStyle=orthogonalEdgeStyle;rounded=0;orthogonalLoop=1;jettySize=auto;html=1;entryX=1;entryY=0.25;entryDx=0;entryDy=0;" parent="1" source="wcq1foTT7ZQvrPHVFRhE-145" target="wcq1foTT7ZQvrPHVFRhE-141" edge="1">
          <mxGeometry relative="1" as="geometry">
            <Array as="points">
              <mxPoint x="6734" y="1050" />
            </Array>
          </mxGeometry>
        </mxCell>
        <mxCell id="wcq1foTT7ZQvrPHVFRhE-145" value="" style="shape=waypoint;sketch=0;fillStyle=solid;size=6;pointerEvents=1;points=[];fillColor=none;resizable=0;rotatable=0;perimeter=centerPerimeter;snapToPoint=1;" parent="1" vertex="1">
          <mxGeometry x="6724" y="830" width="20" height="20" as="geometry" />
        </mxCell>
        <mxCell id="wcq1foTT7ZQvrPHVFRhE-146" style="edgeStyle=orthogonalEdgeStyle;rounded=0;orthogonalLoop=1;jettySize=auto;html=1;entryX=0.25;entryY=0;entryDx=0;entryDy=0;" parent="1" source="wcq1foTT7ZQvrPHVFRhE-147" target="wcq1foTT7ZQvrPHVFRhE-141" edge="1">
          <mxGeometry relative="1" as="geometry" />
        </mxCell>
        <mxCell id="wcq1foTT7ZQvrPHVFRhE-147" value="L_MODE" style="text;html=1;align=center;verticalAlign=middle;whiteSpace=wrap;rounded=0;fillColor=#ffe6cc;strokeColor=#d79b00;" parent="1" vertex="1">
          <mxGeometry x="6434" y="545.5" width="77" height="30" as="geometry" />
        </mxCell>
        <mxCell id="wcq1foTT7ZQvrPHVFRhE-148" value="ADDR[1:0]" style="text;html=1;align=center;verticalAlign=middle;whiteSpace=wrap;rounded=0;" parent="1" vertex="1">
          <mxGeometry x="6547" y="1030" width="77" height="30" as="geometry" />
        </mxCell>
        <mxCell id="wcq1foTT7ZQvrPHVFRhE-153" style="edgeStyle=orthogonalEdgeStyle;rounded=0;orthogonalLoop=1;jettySize=auto;html=1;entryX=0;entryY=0.5;entryDx=0;entryDy=0;" parent="1" source="wcq1foTT7ZQvrPHVFRhE-149" target="wcq1foTT7ZQvrPHVFRhE-139" edge="1">
          <mxGeometry relative="1" as="geometry" />
        </mxCell>
        <mxCell id="wcq1foTT7ZQvrPHVFRhE-149" value="&lt;b&gt;&lt;font style=&quot;font-size: 16px;&quot;&gt;STORE_VAL_DECISION&lt;/font&gt;&lt;/b&gt;" style="rounded=0;whiteSpace=wrap;html=1;fillColor=#fff2cc;strokeColor=#d6b656;" parent="1" vertex="1">
          <mxGeometry x="6234" y="1300" width="200" height="110" as="geometry" />
        </mxCell>
        <mxCell id="wcq1foTT7ZQvrPHVFRhE-151" value="S_MODE" style="text;html=1;align=center;verticalAlign=middle;whiteSpace=wrap;rounded=0;fillColor=#fff2cc;strokeColor=#d6b656;" parent="1" vertex="1">
          <mxGeometry x="6308" y="550" width="77" height="30" as="geometry" />
        </mxCell>
        <mxCell id="wcq1foTT7ZQvrPHVFRhE-152" style="edgeStyle=orthogonalEdgeStyle;rounded=0;orthogonalLoop=1;jettySize=auto;html=1;entryX=0.562;entryY=-0.018;entryDx=0;entryDy=0;entryPerimeter=0;" parent="1" source="wcq1foTT7ZQvrPHVFRhE-151" target="wcq1foTT7ZQvrPHVFRhE-149" edge="1">
          <mxGeometry relative="1" as="geometry" />
        </mxCell>
        <mxCell id="wcq1foTT7ZQvrPHVFRhE-154" value="" style="edgeStyle=orthogonalEdgeStyle;rounded=0;orthogonalLoop=1;jettySize=auto;html=1;entryDx=0;entryDy=0;entryPerimeter=0;" parent="1" source="wcq1foTT7ZQvrPHVFRhE-133" target="wcq1foTT7ZQvrPHVFRhE-155" edge="1">
          <mxGeometry relative="1" as="geometry">
            <mxPoint x="5794" y="840" as="sourcePoint" />
            <mxPoint x="6734" y="840" as="targetPoint" />
          </mxGeometry>
        </mxCell>
        <mxCell id="wcq1foTT7ZQvrPHVFRhE-155" value="" style="shape=waypoint;sketch=0;fillStyle=solid;size=6;pointerEvents=1;points=[];fillColor=none;resizable=0;rotatable=0;perimeter=centerPerimeter;snapToPoint=1;" parent="1" vertex="1">
          <mxGeometry x="6261" y="830" width="20" height="20" as="geometry" />
        </mxCell>
        <mxCell id="wcq1foTT7ZQvrPHVFRhE-156" style="edgeStyle=orthogonalEdgeStyle;rounded=0;orthogonalLoop=1;jettySize=auto;html=1;entryX=0.189;entryY=-0.002;entryDx=0;entryDy=0;entryPerimeter=0;" parent="1" source="wcq1foTT7ZQvrPHVFRhE-155" target="wcq1foTT7ZQvrPHVFRhE-149" edge="1">
          <mxGeometry relative="1" as="geometry" />
        </mxCell>
        <mxCell id="wcq1foTT7ZQvrPHVFRhE-157" value="" style="edgeStyle=orthogonalEdgeStyle;rounded=0;orthogonalLoop=1;jettySize=auto;html=1;entryDx=0;entryDy=0;entryPerimeter=0;" parent="1" source="wcq1foTT7ZQvrPHVFRhE-131" target="wcq1foTT7ZQvrPHVFRhE-158" edge="1">
          <mxGeometry relative="1" as="geometry">
            <mxPoint x="6844" y="1070" as="sourcePoint" />
            <mxPoint x="6623" y="1070" as="targetPoint" />
          </mxGeometry>
        </mxCell>
        <mxCell id="wcq1foTT7ZQvrPHVFRhE-159" style="edgeStyle=orthogonalEdgeStyle;rounded=0;orthogonalLoop=1;jettySize=auto;html=1;entryX=0.75;entryY=0;entryDx=0;entryDy=0;" parent="1" source="wcq1foTT7ZQvrPHVFRhE-158" target="wcq1foTT7ZQvrPHVFRhE-149" edge="1">
          <mxGeometry relative="1" as="geometry">
            <Array as="points">
              <mxPoint x="6760" y="1141" />
              <mxPoint x="6384" y="1141" />
            </Array>
          </mxGeometry>
        </mxCell>
        <mxCell id="wcq1foTT7ZQvrPHVFRhE-158" value="" style="shape=waypoint;sketch=0;fillStyle=solid;size=6;pointerEvents=1;points=[];fillColor=none;resizable=0;rotatable=0;perimeter=centerPerimeter;snapToPoint=1;" parent="1" vertex="1">
          <mxGeometry x="6750" y="1060" width="20" height="20" as="geometry" />
        </mxCell>
        <mxCell id="9uBPEhJecUoyRl4apv6F-1" value="" style="shape=flexArrow;endArrow=classic;html=1;rounded=0;endWidth=110;endSize=51.44;width=76;fillColor=#ffe6cc;strokeColor=#d79b00;" edge="1" parent="1">
          <mxGeometry width="50" height="50" relative="1" as="geometry">
            <mxPoint x="7276" y="1360" as="sourcePoint" />
            <mxPoint x="6436" y="1352.5" as="targetPoint" />
          </mxGeometry>
        </mxCell>
        <mxCell id="9uBPEhJecUoyRl4apv6F-2" value="&lt;b&gt;&lt;font style=&quot;font-size: 42px;&quot;&gt;READ_DATA&lt;/font&gt;&lt;/b&gt;" style="edgeLabel;html=1;align=center;verticalAlign=middle;resizable=0;points=[];" vertex="1" connectable="0" parent="9uBPEhJecUoyRl4apv6F-1">
          <mxGeometry x="-0.1857" y="-1" relative="1" as="geometry">
            <mxPoint as="offset" />
          </mxGeometry>
        </mxCell>
      </root>
    </mxGraphModel>
  </diagram>
</mxfile>
